<?xml version="1.0" encoding="utf-8"?>
<!-- Generator: Adobe Illustrator 24.0.0, SVG Export Plug-In . SVG Version: 6.00 Build 0)  -->
<svg version="1.2" baseProfile="tiny" id="Layer_1" xmlns="http://www.w3.org/2000/svg" xmlns:xlink="http://www.w3.org/1999/xlink"
	 x="0px" y="0px" viewBox="0 0 6 8" xml:space="preserve">
<g>
	<path fill="none" d="M1.9,2.14C1.91,2.12,2,2.15,2.11,2.2c0,0,0,0,0,0l0.08,0.03C2.18,2.25,2.17,2.27,2.15,2.29
		c0,0-0.01,0.01-0.01,0.01h0c0-0.01,0.01-0.01,0.01-0.02c0.01-0.02,0.02-0.03,0.03-0.05c0,0,0,0,0-0.01l0,0c0,0,0,0,0,0c0,0,0,0,0,0
		l0.06,0.02l0.07,0.03C2.31,2.29,2.3,2.3,2.29,2.31l0,0C2.3,2.3,2.31,2.29,2.32,2.29h0.01c0,0,0,0,0,0C2.34,2.3,2.35,2.3,2.36,2.31
		l0.01,0C2.36,2.3,2.35,2.29,2.32,2.28H2.32L2.25,2.25L2.19,2.23L2.1,2.19C2,2.15,1.91,2.11,1.9,2.14C1.89,2.16,1.95,2.22,2.04,2.31
		h0C1.96,2.22,1.89,2.16,1.9,2.14z"/>
	<path fill="none" d="M4.69,2.05C4.69,2.05,4.7,2.04,4.69,2.05c-0.03,0-0.06,0.02-0.09,0.03c0,0,0,0,0,0
		C4.64,2.08,4.66,2.06,4.69,2.05z"/>
	<path fill="none" d="M3.91,2.11C4,2.09,4.08,2.06,4.16,2.02C4.23,2,4.29,1.96,4.35,1.91c0.08-0.08,0.07-0.12,0.14-0.16
		C4.56,1.7,4.64,1.69,4.72,1.71c0,0,0,0,0,0C4.64,1.69,4.56,1.7,4.49,1.74C4.42,1.79,4.43,1.83,4.35,1.91
		C4.29,1.96,4.23,2,4.16,2.02C4.08,2.06,4,2.09,3.91,2.11C3.73,2.15,3.54,2.17,3.35,2.17C3.34,2.21,3.33,2.24,3.32,2.26
		c0.01-0.02,0.02-0.05,0.04-0.09C3.54,2.17,3.73,2.15,3.91,2.11z"/>
	<path fill="none" d="M3.31,2.27C3.3,2.29,3.29,2.3,3.28,2.3h0C3.29,2.3,3.3,2.29,3.31,2.27z"/>
	<path fill="none" d="M4.14,2.29L4.14,2.29c0.01,0,0.01,0,0.01,0.01l0.01,0c0,0-0.01-0.01-0.01-0.01C4.2,2.27,4.24,2.25,4.28,2.23
		c0,0,0,0.01,0,0.01C4.29,2.26,4.3,2.27,4.32,2.28c0.01,0.01,0.02,0.01,0.03,0.01l0.01,0c0,0,0,0,0,0c-0.01,0-0.02-0.01-0.03-0.02
		C4.31,2.26,4.3,2.25,4.28,2.24C4.32,2.22,4.36,2.2,4.4,2.18c0,0,0,0,0,0c0,0,0,0,0,0c0,0,0.01,0,0.01,0c0,0,0,0.01,0,0.01
		C4.41,2.2,4.42,2.21,4.43,2.22c0.01,0,0.02,0.01,0.03,0.01c0,0,0,0,0-0.01c-0.01,0-0.01,0-0.02-0.01C4.43,2.21,4.42,2.2,4.41,2.18
		L4.5,2.14c0,0,0,0,0-0.01C4.53,2.11,4.57,2.1,4.6,2.09c0,0,0,0,0,0C4.57,2.1,4.53,2.11,4.51,2.13L4.4,2.18
		C4.37,2.19,4.32,2.21,4.27,2.23C4.24,2.25,4.2,2.26,4.14,2.29L4.14,2.29c-0.01,0-0.03,0-0.04,0.01l0.02,0
		C4.13,2.29,4.14,2.29,4.14,2.29z"/>
	<path fill="none" d="M2.03,1.83c-0.02,0-0.05,0-0.08,0C1.98,1.83,2.01,1.83,2.03,1.83C2.03,1.83,2.03,1.83,2.03,1.83z"/>
	<path fill="none" d="M3.31,0c0.01,0.21,0.06,0.43,0.14,0.63c0.07,0.18,0.16,0.35,0.27,0.5C3.57,1.08,3.4,1.05,3.24,1.05
		c0,0,0,0,0,0c0.16,0,0.32,0.03,0.47,0.08c0.16,0.05,0.3,0.13,0.43,0.24c0.07,0.04,0.13,0.08,0.2,0.14s0.13,0.11,0.19,0.16
		c0.08-0.01,0.16-0.01,0.24,0C4.86,1.67,4.94,1.7,5,1.75C5.05,1.8,5.08,1.87,5.09,1.94C5.1,2,5.1,2.06,5.07,2.11
		C5.04,2.16,4.99,2.2,4.94,2.22L4.89,2.25L4.87,2.26C4.93,2.23,4.98,2.17,5,2.1c0,0,0,0,0,0C4.98,2.17,4.93,2.22,4.87,2.26
		c0,0-0.01,0.01-0.01,0.01C4.84,2.28,4.83,2.28,4.81,2.29l0.03,0c0.02,0.02,0.05,0.05,0.07,0.08C4.93,2.4,4.95,2.43,4.97,2.46
		c-0.02,0-0.05-0.01-0.07-0.01c-0.02,0-0.04,0-0.06,0.01C4.85,2.47,4.86,2.49,4.87,2.5c0,0,0-0.01,0.01-0.01
		c0.14-0.08,0.45,0.17,0.59,0.37c0.1,0.13,0.17,0.27,0.21,0.42c0,0.07,0.02,0.15,0.04,0.22c0.02,0.03,0.02,0.03,0.03,0.07
		c0,0.01,0,0.01,0,0.02c-0.01,0.02-0.06,0.03-0.1,0.02C5.62,3.61,5.6,3.6,5.58,3.58C5.49,3.5,5.4,3.43,5.31,3.37
		C5.18,3.28,5.12,3.33,5.02,3.27c0,0,0,0-0.01-0.01c0.01,0.02,0.02,0.04,0.02,0.06C5.03,3.32,5.01,3.32,5,3.31
		C4.99,3.31,4.97,3.31,4.96,3.31C4.97,3.33,4.99,3.35,5,3.38C5.01,3.4,5.02,3.43,5.03,3.46C5.02,3.44,5,3.43,4.99,3.42
		C4.97,3.41,4.96,3.4,4.94,3.4c0.01,0.02,0.02,0.05,0.03,0.08c0,0.02,0,0.04,0,0.07C4.95,3.53,4.93,3.52,4.91,3.51
		C4.92,3.54,4.92,3.57,4.93,3.6c0,0.03,0,0.05,0,0.08C4.92,3.66,4.91,3.65,4.9,3.63C4.89,3.62,4.88,3.6,4.86,3.59
		C4.88,3.63,4.9,3.67,4.9,3.71c0,0.02,0,0.04,0,0.07C4.89,3.76,4.88,3.74,4.87,3.73C4.86,3.71,4.84,3.69,4.83,3.67
		c0.01,0.03,0.02,0.07,0.02,0.1c0,0.02,0,0.05,0,0.07C4.84,3.83,4.83,3.82,4.81,3.81C4.8,3.8,4.79,3.79,4.78,3.78
		c0.01,0.03,0.01,0.05,0.02,0.08c0,0.02,0,0.05,0,0.07c0-0.02-0.01-0.03-0.02-0.05C4.76,3.87,4.75,3.85,4.73,3.83
		c0,0.03,0,0.07-0.01,0.1C4.72,3.96,4.71,3.98,4.7,4H6V0H3.31z"/>
	<path fill="none" d="M1.32,3.8H1.3c-0.02,0-0.04,0.01-0.05,0.01C1.23,3.82,1.21,3.83,1.2,3.84V3.78c0-0.04,0.01-0.07,0.01-0.1
		c-0.01,0-0.02,0.01-0.03,0.01C1.16,3.7,1.14,3.71,1.13,3.72C1.14,3.7,1.14,3.68,1.15,3.64c0.01-0.03,0.02-0.07,0.03-0.1
		c-0.01,0-0.02,0.01-0.04,0.02C1.14,3.56,1.12,3.57,1.11,3.58c0-0.02,0.01-0.04,0.01-0.05c0,0,0,0,0,0c-0.08,0-0.16-0.03-0.26,0.03
		C0.8,3.6,0.74,3.65,0.69,3.7C0.65,3.74,0.61,3.77,0.57,3.79C0.53,3.81,0.44,3.83,0.41,3.8c-0.07-0.06,0.12-0.38,0.3-0.61
		c0.07-0.09,0.52-0.67,0.72-0.65c0.02-0.01,0.03-0.02,0.05-0.03C1.45,2.48,1.41,2.48,1.37,2.5c0.03-0.03,0.05-0.07,0.09-0.1
		C1.5,2.37,1.53,2.34,1.58,2.31l0.04,0C1.59,2.29,1.55,2.28,1.53,2.26c-0.01-0.04,0-0.07,0-0.1c0,0.03-0.01,0.06,0,0.1
		C1.51,2.24,1.5,2.21,1.49,2.19C1.46,2.12,1.47,2.03,1.5,1.96c0.04-0.07,0.1-0.13,0.17-0.17c0.06-0.03,0.13-0.06,0.2-0.07
		c0.09-0.02,0.15-0.03,0.2-0.04C2.2,1.54,2.34,1.42,2.49,1.32C2.65,1.22,2.82,1.15,3,1.1c0,0,0,0,0,0C2.99,0.99,2.98,0.87,3,0.76
		C3.01,0.67,3.04,0.58,3.07,0.5C3.13,0.32,3.21,0.16,3.31,0H0v4h1.25C1.27,3.94,1.28,3.88,1.3,3.81C1.31,3.81,1.31,3.81,1.32,3.8z"
		/>
	<path fill="none" d="M4.01,1.6c0.05,0.07,0,0.18-0.1,0.26c-0.05,0.04-0.1,0.06-0.15,0.06c0.05,0,0.11-0.02,0.16-0.06l0,0
		C4.02,1.78,4.06,1.67,4.01,1.6C3.99,1.56,3.94,1.55,3.9,1.55c0,0,0,0,0,0C3.94,1.55,3.98,1.56,4.01,1.6L4.01,1.6z"/>
	<path fill="none" d="M4.68,3.89c0,0.03,0,0.07,0,0.11H4.7c0-0.02,0-0.04,0-0.05C4.69,3.93,4.69,3.91,4.68,3.89z"/>
	<path fill="none" d="M2.93,1.75C2.92,1.73,2.9,1.71,2.88,1.7C2.87,1.68,2.85,1.67,2.84,1.66C2.8,1.63,2.75,1.6,2.71,1.58
		c0,0,0,0,0,0C2.75,1.61,2.8,1.63,2.84,1.66C2.85,1.67,2.86,1.68,2.87,1.7C2.9,1.71,2.91,1.73,2.93,1.75C2.97,1.79,3,1.83,3.03,1.87
		C3.02,1.91,2.99,1.93,2.96,1.95c0.03-0.02,0.06-0.05,0.07-0.08C3,1.83,2.97,1.79,2.93,1.75z"/>
	<path fill="none" d="M2.96,1.95L2.96,1.95c-0.05,0.03-0.1,0.04-0.15,0.03C2.86,1.99,2.92,1.98,2.96,1.95z"/>
	<path fill="#221D5E" d="M0.71,3.19C0.53,3.42,0.35,3.73,0.41,3.8c0.03,0.03,0.11,0.01,0.16-0.01C0.61,3.77,0.65,3.74,0.69,3.7
		C0.74,3.65,0.8,3.6,0.87,3.56c0.1-0.06,0.18-0.03,0.26-0.03c0-0.02,0.01-0.05,0.02-0.07L1.12,3.47C1.11,3.48,1.1,3.48,1.09,3.49
		C1.1,3.47,1.11,3.45,1.12,3.42c0.01-0.03,0.03-0.05,0.04-0.08C1.16,3.34,1.15,3.33,1.14,3.33c-0.02,0-0.03,0-0.05,0
		c0.02-0.04,0.04-0.07,0.06-0.11c0.03-0.05,0.06-0.1,0.09-0.14c-0.01,0-0.02,0-0.03,0.01c-0.01,0-0.03,0.01-0.04,0.02
		C1.18,3.06,1.2,3,1.21,2.96s0.04-0.08,0.05-0.11C1.26,2.84,1.25,2.84,1.24,2.84c-0.03,0-0.05,0.03-0.06,0.06
		C1.18,2.78,1.23,2.68,1.31,2.6c0.03-0.03,0.07-0.04,0.11-0.06C1.23,2.52,0.77,3.11,0.71,3.19z"/>
	<path fill="#221D5E" d="M5.03,2.76C5.02,2.75,5,2.74,4.99,2.74c-0.01,0-0.02,0.01-0.03,0.02C4.97,2.77,4.98,2.78,4.99,2.8
		c0,0.01,0.01,0.02,0.01,0.04C4.98,2.83,4.97,2.82,4.96,2.81c-0.01,0-0.02-0.01-0.04-0.01c0.02,0.02,0.03,0.05,0.05,0.07
		C4.98,2.9,4.99,2.93,5,2.95C4.99,2.94,4.98,2.93,4.97,2.93c-0.01,0-0.02,0-0.03,0c0.02,0.02,0.03,0.03,0.05,0.06
		C4.99,3,5,3.02,5,3.03C4.99,3.02,4.98,3.02,4.97,3.01c-0.01,0-0.02,0-0.02,0.01C4.96,3.05,4.98,3.07,5,3.1
		c0.01,0.02,0.03,0.04,0.04,0.06C5.03,3.15,5.01,3.15,4.99,3.14c-0.01,0-0.03,0-0.04,0c0.02,0.03,0.04,0.07,0.06,0.11
		c0,0.01,0,0.01,0.01,0.02c0,0,0,0,0.01,0.01c0.1,0.05,0.16,0.01,0.28,0.09C5.4,3.43,5.49,3.5,5.58,3.58
		C5.6,3.6,5.62,3.61,5.65,3.61c0.04,0.01,0.09,0,0.1-0.02c0-0.01,0-0.01,0-0.02C5.74,3.53,5.73,3.53,5.72,3.5
		C5.7,3.43,5.68,3.36,5.68,3.28c-0.04-0.15-0.11-0.3-0.21-0.42C5.32,2.66,5.01,2.41,4.87,2.49c0,0,0,0.01-0.01,0.01
		C4.88,2.52,4.9,2.54,4.92,2.56C4.96,2.62,5,2.69,5.03,2.76z"/>
	<path fill="#6D3B17" d="M2.76,2.8C2.76,2.8,2.76,2.79,2.76,2.8c0-0.06,0-0.11,0.01-0.17c0.01-0.06,0.01-0.14,0.02-0.2l0.12,0.01
		l0.04,0.01c0,0,0-0.01,0-0.01h0.01C2.95,2.52,2.95,2.6,2.95,2.68c0,0.06,0,0.12,0.01,0.19c0,0,0,0,0,0
		C2.95,2.81,2.95,2.75,2.95,2.69c0-0.08,0.01-0.16,0.02-0.24l0.15,0.01c0,0,0-0.01,0-0.01h0.01c0,0.07,0.01,0.15,0.02,0.22
		c0.01,0.08,0.02,0.14,0.03,0.2v0C3.16,2.82,3.15,2.76,3.14,2.69C3.13,2.62,3.13,2.54,3.12,2.47L3.2,2.47c0.03,0,0.06,0,0.09,0
		c0,0,0-0.01,0-0.01H3.3c0,0,0,0.01,0,0.02c0.05,0,0.1-0.01,0.15-0.01c0-0.01,0-0.01,0-0.02h0.02c0,0,0,0.01,0.01,0.01
		c0.07-0.01,0.16-0.02,0.25-0.05c0,0,0,0,0,0h0h0.01C3.82,2.49,3.87,2.57,3.9,2.67c0,0,0-0.01,0-0.01C3.87,2.57,3.82,2.48,3.76,2.41
		c0.06-0.02,0.13-0.03,0.2-0.06c0,0,0,0,0,0h0.01C4,2.38,4.02,2.42,4.05,2.45c0.02,0.03,0.03,0.05,0.04,0.08c0,0,0-0.01,0-0.01
		C4.08,2.5,4.07,2.48,4.05,2.45C4.03,2.41,4,2.38,3.97,2.35l0.07-0.02C4.08,2.31,4.1,2.3,4.13,2.29l-0.02,0
		C4.08,2.3,4.06,2.31,4.04,2.32L3.97,2.34H3.96c-0.07,0.02-0.14,0.04-0.2,0.06H3.74c-0.1,0.02-0.19,0.04-0.26,0.05H3.46
		C3.41,2.45,3.36,2.46,3.3,2.46H3.29c-0.03,0-0.06,0-0.1,0L3.12,2.45H3.11L2.96,2.44H2.95L2.9,2.43L2.79,2.42
		c-0.01,0.06-0.02,0.13-0.02,0.2C2.76,2.69,2.76,2.74,2.76,2.8z"/>
	<polygon fill="#6D3B17" points="3.28,2.3 3.28,2.3 3.27,2.31 3.27,2.31 	"/>
	<path fill="#6D3B17" d="M4.17,2.29l-0.01,0c0.02,0.02,0.03,0.05,0.05,0.07l0.04,0.05c0,0,0-0.01,0-0.01L4.22,2.36
		C4.2,2.34,4.18,2.32,4.17,2.29z"/>
	<path fill="#6D3B17" d="M1.9,3.92C1.92,3.94,1.93,3.97,1.96,4h0C1.94,3.97,1.92,3.94,1.9,3.92C1.89,3.91,1.89,3.92,1.9,3.92z"/>
	<path fill="#6D3B17" d="M2.24,2.34C2.22,2.37,2.19,2.39,2.17,2.41c0,0,0,0,0,0C2.19,2.39,2.22,2.37,2.24,2.34
		c0.02-0.01,0.03-0.02,0.05-0.04l0,0C2.28,2.32,2.26,2.33,2.24,2.34z"/>
	<polygon fill="#6D3B17" points="4.36,2.3 4.36,2.29 4.34,2.29 	"/>
	<path fill="#6D3B17" d="M2.44,2.34C2.41,2.38,2.38,2.41,2.36,2.45c0,0,0,0,0,0C2.39,2.41,2.41,2.37,2.44,2.34l0.01-0.01
		c0,0,0,0.01,0,0.01c0.04,0.02,0.08,0.03,0.11,0.04L2.6,2.4c0,0,0-0.01,0-0.01c0,0,0,0,0,0L2.56,2.38C2.52,2.37,2.48,2.35,2.44,2.34
		L2.44,2.34C2.42,2.33,2.39,2.32,2.37,2.31l-0.01,0C2.39,2.32,2.42,2.33,2.44,2.34z"/>
	<path fill="#6D3B17" d="M2.19,2.46c-0.06-0.07-0.1-0.11-0.14-0.16h0C2.09,2.35,2.13,2.39,2.19,2.46C2.24,2.53,2.24,2.54,2.3,2.62
		C2.37,2.71,2.45,2.8,2.54,2.88c0,0,0,0,0,0C2.46,2.8,2.38,2.72,2.31,2.63C2.24,2.55,2.24,2.54,2.19,2.46z"/>
	<path fill="#6D3B17" d="M2.03,3.78C2.1,3.85,2.15,3.92,2.2,4h0C2.16,3.92,2.1,3.85,2.03,3.78L2.03,3.78z"/>
	<path fill="#6D3B17" d="M2.11,2.35C2.11,2.35,2.11,2.35,2.11,2.35c0.01-0.01,0.03-0.03,0.04-0.04h0C2.13,2.32,2.12,2.34,2.11,2.35z
		"/>
	<path fill="#6D3B17" d="M2.57,2.8C2.57,2.8,2.57,2.8,2.57,2.8c0-0.06,0-0.12,0.01-0.18C2.59,2.54,2.59,2.47,2.6,2.4
		c0.04,0.01,0.1,0.02,0.16,0.03c0,0,0-0.01,0.01-0.01h0C2.7,2.41,2.65,2.4,2.6,2.39C2.59,2.46,2.58,2.53,2.58,2.6
		C2.57,2.68,2.57,2.73,2.57,2.8z"/>
	<path fill="#6D3B17" d="M4.73,3.83c0.02,0.02,0.03,0.04,0.04,0.06C4.78,3.9,4.79,3.92,4.79,3.94c0-0.02,0-0.05,0-0.07
		c0-0.03-0.01-0.06-0.02-0.08C4.79,3.79,4.8,3.8,4.81,3.81c0.01,0.01,0.02,0.02,0.03,0.04c0-0.02,0-0.05,0-0.07
		c0-0.03-0.01-0.07-0.02-0.1c0.02,0.02,0.03,0.04,0.05,0.06C4.88,3.74,4.89,3.76,4.9,3.78c0-0.02,0-0.04,0-0.07
		C4.9,3.67,4.88,3.63,4.86,3.59C4.88,3.6,4.89,3.62,4.9,3.63c0.01,0.01,0.02,0.03,0.03,0.04c0-0.03,0-0.05,0-0.08
		c0-0.03-0.01-0.06-0.02-0.08c0.02,0,0.05,0.01,0.06,0.03c0-0.02,0-0.04,0-0.07c0-0.03-0.01-0.06-0.03-0.08
		C4.96,3.4,4.97,3.41,4.99,3.42C5,3.43,5.02,3.44,5.03,3.46C5.02,3.43,5.01,3.4,5,3.38C4.99,3.35,4.97,3.33,4.96,3.31
		c0.01,0,0.03,0,0.04,0.01c0.01,0,0.03,0.01,0.04,0.02C5.04,3.31,5.03,3.29,5.02,3.27c0-0.01,0-0.01-0.01-0.02
		C4.99,3.21,4.97,3.18,4.95,3.14c0.01,0,0.03,0,0.04,0c0.02,0,0.04,0.01,0.05,0.02C5.03,3.14,5.02,3.12,5,3.1
		C4.98,3.07,4.96,3.05,4.94,3.02c0.01,0,0.02-0.01,0.02-0.01c0.01,0,0.03,0.01,0.04,0.02C5,3.02,4.99,3,4.98,2.99
		C4.97,2.96,4.95,2.95,4.94,2.93c0.01,0,0.02,0,0.03,0c0.01,0,0.02,0.01,0.03,0.02C4.99,2.93,4.98,2.9,4.97,2.88
		C4.95,2.85,4.94,2.83,4.92,2.81c0.01,0,0.02,0,0.04,0.01C4.97,2.82,4.98,2.83,5,2.83c0-0.01-0.01-0.02-0.01-0.04
		C4.98,2.78,4.97,2.77,4.96,2.76c0.01-0.01,0.02-0.01,0.03-0.02c0.02,0,0.03,0,0.05,0.02C5,2.69,4.96,2.62,4.92,2.56
		C4.9,2.54,4.88,2.52,4.87,2.5C4.86,2.49,4.85,2.47,4.84,2.46c0.02,0,0.04-0.01,0.06-0.01c0.02,0,0.05,0,0.07,0.01
		C4.95,2.43,4.93,2.4,4.91,2.37C4.88,2.34,4.86,2.31,4.84,2.29l-0.03,0C4.79,2.3,4.76,2.32,4.74,2.33C4.57,2.49,4.45,2.64,4.37,2.74
		c-0.08,0.11-0.16,0.21-0.25,0.3C4.03,3.13,3.94,3.21,3.84,3.28c-0.2,0.13-0.43,0.19-0.66,0.19c-0.2,0.03-0.4,0-0.58-0.09
		C2.4,3.27,2.23,3.1,2.12,2.9C2.07,2.8,2.01,2.71,1.95,2.62C1.88,2.53,1.8,2.45,1.72,2.37c-0.04-0.01-0.06-0.04-0.1-0.06l-0.04,0
		C1.53,2.34,1.5,2.37,1.46,2.41C1.43,2.43,1.4,2.47,1.37,2.5c0.03-0.02,0.08-0.02,0.1,0.01C1.46,2.52,1.44,2.53,1.43,2.54
		C1.39,2.56,1.35,2.57,1.31,2.6C1.23,2.68,1.18,2.78,1.18,2.89c0.01-0.03,0.03-0.05,0.06-0.06c0.01,0,0.02,0,0.03,0.01
		C1.25,2.88,1.23,2.92,1.21,2.96S1.18,3.06,1.16,3.1c0.01-0.01,0.03-0.01,0.04-0.02c0.01,0,0.02,0,0.03-0.01
		C1.21,3.12,1.18,3.17,1.15,3.22C1.13,3.26,1.11,3.29,1.09,3.33c0.02,0,0.03,0,0.05,0c0.01,0,0.02,0.01,0.02,0.02
		C1.15,3.37,1.14,3.39,1.12,3.42C1.11,3.45,1.1,3.47,1.09,3.49C1.1,3.48,1.11,3.48,1.12,3.47l0.02-0.01
		C1.13,3.48,1.13,3.5,1.12,3.53c0,0,0,0,0,0c0,0.02-0.01,0.04-0.01,0.05c0.01-0.01,0.02-0.02,0.03-0.03
		c0.01-0.01,0.02-0.01,0.04-0.02c-0.01,0.03-0.02,0.07-0.03,0.1C1.14,3.68,1.14,3.7,1.13,3.72C1.14,3.71,1.16,3.7,1.17,3.69
		c0.01-0.01,0.02-0.01,0.03-0.01c0,0.03-0.01,0.06-0.01,0.1v0.06c0.01-0.01,0.03-0.02,0.05-0.03C1.26,3.81,1.28,3.8,1.3,3.8h0.02
		c0.15-0.25,0.46-0.34,0.72-0.2C2.05,3.6,2.06,3.61,2.07,3.62c0.04,0.03,0.07,0.05,0.11,0.07c0.07,0.03,0.09,0.03,0.15,0.05
		c0.07,0.03,0.14,0.07,0.19,0.13C2.55,3.91,2.58,3.96,2.6,4h0.81c0.13-0.11,0.25-0.21,0.33-0.27C3.9,3.66,4.08,3.68,4.23,3.76
		C4.32,3.82,4.38,3.91,4.42,4h0.25c0-0.03,0-0.07,0-0.11C4.69,3.91,4.69,3.93,4.7,3.95c0,0.02,0,0.04,0,0.05h0
		c0.01-0.02,0.02-0.04,0.02-0.07C4.73,3.9,4.73,3.87,4.73,3.83z"/>
	<path fill="#6D3B17" d="M3.7,3.98C3.7,3.99,3.69,3.99,3.69,4h0C3.7,3.99,3.7,3.99,3.7,3.98C3.7,3.98,3.7,3.98,3.7,3.98z"/>
	<path fill="#D4C1BB" d="M2.93,1.75C2.91,1.73,2.9,1.71,2.87,1.7C2.86,1.68,2.85,1.67,2.84,1.66C2.8,1.63,2.75,1.61,2.71,1.58
		C2.69,1.59,2.67,1.6,2.66,1.61C2.59,1.7,2.59,1.83,2.68,1.91c0.04,0.04,0.08,0.07,0.13,0.07c0.05,0.01,0.1,0,0.15-0.03
		c0.03-0.02,0.06-0.05,0.07-0.08C3,1.83,2.97,1.79,2.93,1.75z M2.79,1.83c-0.05-0.01-0.08-0.05-0.08-0.1c0-0.01,0-0.02,0.01-0.03
		c0.01-0.02,0.02-0.03,0.04-0.04c0.02-0.01,0.05-0.01,0.07,0C2.85,1.67,2.86,1.68,2.87,1.7c0.01,0.02,0.02,0.04,0.01,0.06
		C2.88,1.8,2.84,1.84,2.79,1.83z"/>
	<path fill="#D4C1BB" d="M3.8,1.6c0.05,0,0.09,0.04,0.09,0.09c0,0,0,0,0,0c0.01,0.05-0.03,0.09-0.08,0.1
		c-0.05,0.01-0.09-0.03-0.1-0.08c0-0.01,0-0.01,0-0.02c0-0.01,0-0.01,0-0.02C3.69,1.68,3.67,1.7,3.66,1.72L3.64,1.74
		C3.62,1.78,3.62,1.83,3.65,1.87C3.67,1.9,3.71,1.91,3.76,1.91c0.05,0,0.1-0.02,0.15-0.06c0.1-0.07,0.15-0.19,0.1-0.26h0
		C3.98,1.56,3.94,1.55,3.9,1.55C3.86,1.57,3.83,1.58,3.8,1.6C3.8,1.6,3.8,1.6,3.8,1.6z"/>
	<path fill="#D4C1BB" d="M4.72,1.71C4.64,1.69,4.56,1.7,4.49,1.74C4.42,1.79,4.43,1.83,4.35,1.91C4.29,1.96,4.23,2,4.16,2.02
		C4.08,2.06,4,2.09,3.91,2.11C3.73,2.15,3.54,2.17,3.35,2.17C3.34,2.21,3.33,2.24,3.32,2.26c0,0.01-0.01,0.01-0.01,0.01
		C3.3,2.29,3.29,2.3,3.28,2.3c0,0-0.01,0.01-0.01,0.01c0,0,0,0,0,0c0,0,0,0,0,0c-0.04,0-0.06-0.05-0.09-0.14
		C3.03,2.21,2.79,2.16,2.59,2.1C2.32,2.01,2.23,1.84,2.03,1.83c-0.03,0-0.05,0-0.08,0c-0.2,0.01-0.44,0.08-0.43,0.32
		c0,0.03-0.01,0.06,0,0.1c0.02,0.03,0.06,0.04,0.09,0.06c0.03,0.02,0.06,0.05,0.1,0.06C1.8,2.45,1.88,2.53,1.95,2.62
		C2.01,2.71,2.07,2.8,2.12,2.9C2.23,3.1,2.4,3.27,2.6,3.39c0.18,0.09,0.38,0.12,0.58,0.09c0.23,0,0.46-0.06,0.66-0.19
		c0.1-0.07,0.19-0.15,0.28-0.24c0.09-0.1,0.18-0.2,0.25-0.3c0.08-0.1,0.2-0.25,0.37-0.41C4.76,2.32,4.79,2.3,4.81,2.29
		c0.02-0.01,0.03-0.01,0.04-0.02c0,0,0.01,0,0.01-0.01C4.93,2.22,4.98,2.17,5,2.1c0.02-0.08,0.01-0.16-0.03-0.22
		C4.91,1.79,4.82,1.73,4.72,1.71z M3.48,2.21c0.03,0.01,0.04,0.03,0.04,0.06c0,0.03-0.04,0.07-0.03,0.04
		c0.01-0.04-0.02-0.08-0.06-0.08c0,0,0,0,0,0C3.39,2.23,3.45,2.21,3.48,2.21z M3.07,2.21c0.03,0,0.09,0.02,0.06,0.02
		c0,0-0.01,0-0.01,0C3.08,2.24,3.06,2.28,3.06,2.32C3.07,2.34,3.03,2.3,3.03,2.27c0,0,0,0,0,0C3.03,2.24,3.05,2.22,3.07,2.21z
		 M4.73,2.19C4.71,2.18,4.7,2.16,4.68,2.15c0,0,0,0-0.01,0c0,0-0.01,0-0.01-0.01C4.66,2.13,4.64,2.13,4.63,2.12
		C4.61,2.14,4.59,2.15,4.57,2.18C4.5,2.24,4.47,2.29,4.43,2.33c-0.13,0.15-0.26,0.29-0.4,0.42c-0.11,0.1-0.46,0.41-0.9,0.38
		C2.91,3.11,2.71,3.02,2.55,2.88c0,0,0,0,0,0c0,0,0,0,0,0C2.45,2.8,2.37,2.71,2.3,2.62C2.24,2.54,2.24,2.53,2.18,2.46
		c-0.05-0.07-0.1-0.11-0.14-0.15C1.95,2.22,1.89,2.16,1.89,2.14C1.91,2.11,2,2.15,2.1,2.19l0.09,0.04l0.06,0.02l0.07,0.03h0.01
		C2.35,2.29,2.36,2.3,2.37,2.31c0.02,0.01,0.05,0.02,0.06,0.03h0.01c0.04,0.02,0.08,0.03,0.12,0.05L2.6,2.39c0,0,0,0,0,0
		c0,0,0,0,0,0c0,0,0,0,0,0C2.65,2.4,2.7,2.41,2.77,2.42h0h0.01h0c0,0,0,0,0,0L2.9,2.43l0.05,0.01h0.01l0.15,0.02h0.01l0.08,0.01
		c0.03,0,0.06,0,0.1,0H3.3c0.05,0,0.1-0.01,0.16-0.01h0.02c0.07-0.01,0.16-0.03,0.26-0.05h0.02c0.06-0.02,0.13-0.03,0.2-0.06h0.01
		l0.07-0.02C4.06,2.31,4.08,2.3,4.1,2.29c0.01,0,0.03-0.01,0.04-0.01h0.01C4.2,2.26,4.24,2.25,4.27,2.23
		C4.32,2.21,4.37,2.19,4.4,2.18l0.1-0.05C4.53,2.11,4.57,2.1,4.6,2.09C4.59,2.08,4.58,2.07,4.58,2.06L4.55,2.03l-0.01,0V2.02H4.54
		l0.01-0.01v0L4.56,2L4.55,2.01v0l0.01,0.01l0.02,0.03C4.59,2.07,4.59,2.07,4.6,2.08C4.63,2.07,4.66,2.05,4.7,2.04
		c0,0-0.01,0.01,0,0.01c0,0,0,0,0,0c0.01,0-0.02,0.03-0.06,0.07c0.01,0.01,0.02,0.02,0.03,0.03c0,0,0.01,0.01,0.01,0.01
		C4.7,2.16,4.71,2.17,4.73,2.19L4.73,2.19z"/>
	<path fill="#364A9F" d="M3.01,1.1C3,1.1,3,1.1,3.01,1.1C2.82,1.15,2.65,1.22,2.49,1.32C2.34,1.42,2.2,1.54,2.08,1.68
		C2.03,1.69,1.96,1.7,1.87,1.72C1.8,1.74,1.74,1.76,1.67,1.79C1.6,1.83,1.54,1.89,1.5,1.96C1.47,2.03,1.46,2.12,1.49,2.19
		C1.5,2.21,1.51,2.24,1.53,2.26c-0.01-0.04,0-0.07,0-0.1C1.51,1.92,1.75,1.84,1.95,1.84c0.03,0,0.06-0.01,0.08,0c0,0,0,0,0,0
		c0.2,0.01,0.28,0.18,0.56,0.26c0.2,0.06,0.44,0.11,0.59,0.07c0.03,0.08,0.05,0.14,0.09,0.14c0,0,0,0,0,0c0,0,0.01-0.01,0.01-0.01
		c0.01,0,0.02-0.01,0.03-0.03c0,0,0.01-0.01,0.01-0.01c0.01-0.02,0.02-0.05,0.04-0.09c0.19,0,0.38-0.02,0.56-0.06
		C4,2.09,4.08,2.06,4.16,2.02C4.23,2,4.29,1.96,4.35,1.91c0.08-0.08,0.07-0.12,0.14-0.16C4.56,1.7,4.64,1.69,4.72,1.71c0,0,0,0,0,0
		c0.1,0.02,0.19,0.08,0.25,0.16C5.01,1.94,5.02,2.02,5,2.1c0,0,0,0,0,0C4.98,2.17,4.93,2.23,4.87,2.26l0.02-0.01l0.05-0.03
		c0.05-0.03,0.1-0.06,0.13-0.11C5.1,2.06,5.1,2,5.09,1.94C5.08,1.87,5.05,1.8,5,1.75C4.94,1.7,4.86,1.67,4.78,1.67
		c-0.08-0.01-0.16-0.01-0.24,0c-0.06-0.05-0.12-0.1-0.19-0.16s-0.13-0.1-0.2-0.14c-0.13-0.1-0.27-0.18-0.43-0.24
		C3.56,1.08,3.4,1.05,3.24,1.05C3.16,1.06,3.08,1.08,3.01,1.1C3.01,1.1,3.01,1.1,3.01,1.1z M4.14,1.78L4.14,1.78L4.13,1.79
		L4.14,1.78l0,0.01L4.13,1.81C4.11,1.83,4.1,1.84,4.09,1.85C4.07,1.88,4.04,1.9,4.01,1.92c-0.06,0.04-0.13,0.06-0.2,0.06
		c-0.03,0-0.07-0.01-0.1-0.02c-0.01,0-0.02-0.01-0.03-0.01L3.64,1.95L3.62,1.94l0,0h0c0,0,0,0,0,0l-0.01,0H3.6l0.01,0c0,0,0,0,0,0
		l0,0h0l0.01,0.01l0.03,0.01c0.01,0,0.01,0,0.02,0.01l0.02,0.01C3.73,1.98,3.77,1.98,3.8,1.98c0.07,0,0.14-0.02,0.2-0.06
		C4.03,1.9,4.06,1.87,4.09,1.85C4.1,1.83,4.11,1.82,4.12,1.81l0.01-0.01l0,0c-0.05,0.05-0.12,0.09-0.19,0.1V1.89
		c0.07-0.02,0.14-0.05,0.19-0.1L4.14,1.78z M3.9,1.55C3.94,1.55,3.99,1.56,4.02,1.6c0.05,0.07,0.01,0.18-0.1,0.26l0,0
		C3.87,1.9,3.81,1.91,3.76,1.91c-0.05,0-0.09-0.01-0.11-0.04C3.62,1.83,3.62,1.78,3.64,1.74l0.02-0.02C3.67,1.7,3.69,1.68,3.71,1.67
		c0,0,0,0,0,0C3.74,1.64,3.77,1.62,3.8,1.6c0,0,0,0,0,0c0,0,0,0,0,0C3.83,1.58,3.86,1.57,3.9,1.55C3.9,1.55,3.9,1.55,3.9,1.55z
		 M3.68,1.43C3.74,1.39,3.8,1.35,3.86,1.31C3.9,1.32,3.81,1.4,3.72,1.47C3.63,1.54,3.58,1.64,3.55,1.61
		C3.52,1.61,3.55,1.52,3.68,1.43z M2.93,2.03C2.89,2.04,2.85,2.04,2.81,2.04c-0.04,0-0.08-0.01-0.12-0.03
		C2.65,2,2.61,1.98,2.58,1.95C2.57,1.95,2.56,1.94,2.55,1.93C2.54,1.95,2.53,1.98,2.52,2H2.52c0.01-0.03,0.02-0.05,0.02-0.08
		C2.52,1.9,2.5,1.88,2.49,1.86l0.01-0.01c0.01,0.02,0.03,0.03,0.05,0.05c0,0,0,0,0,0c0-0.02,0.01-0.03,0.01-0.05V1.84
		c0,0,0-0.01,0-0.01V1.82l0.01,0v0.02c0,0.01,0,0.02,0,0.02c0,0.02,0,0.03-0.01,0.05c0,0,0,0.01,0,0.01
		c0.01,0.01,0.02,0.02,0.03,0.03c0.03,0.02,0.07,0.05,0.11,0.06c0.04,0.01,0.08,0.02,0.12,0.03C2.85,2.04,2.89,2.03,2.93,2.03
		L2.93,2.03z M2.96,1.95c-0.05,0.03-0.1,0.04-0.15,0.03c-0.05-0.01-0.1-0.03-0.13-0.07C2.59,1.83,2.59,1.7,2.66,1.61
		C2.67,1.6,2.69,1.59,2.71,1.58c0,0,0,0,0,0C2.75,1.6,2.8,1.63,2.84,1.66C2.85,1.67,2.87,1.68,2.88,1.7
		C2.9,1.71,2.92,1.73,2.93,1.75C2.97,1.79,3,1.83,3.03,1.87C3.02,1.91,2.99,1.93,2.96,1.95L2.96,1.95z M3.04,1.65
		C2.97,1.63,2.91,1.58,2.87,1.52C2.8,1.42,2.73,1.36,2.73,1.35S2.8,1.42,2.9,1.49C3.03,1.58,3.08,1.65,3.04,1.65z"/>
	<path fill="#231F20" d="M3.86,1.31C3.8,1.35,3.74,1.39,3.68,1.43C3.55,1.52,3.52,1.61,3.55,1.61c0.03,0.03,0.08-0.07,0.17-0.14
		C3.81,1.4,3.9,1.32,3.86,1.31z"/>
	<path fill="#221D5E" d="M3,0.76C2.98,0.87,2.99,0.99,3.01,1.1c0,0,0,0,0,0c0.08-0.02,0.16-0.04,0.24-0.05c0,0,0,0,0,0
		c0.16,0,0.32,0.03,0.47,0.08C3.6,0.97,3.51,0.81,3.44,0.63C3.37,0.43,3.32,0.21,3.31,0C3.21,0.16,3.13,0.32,3.07,0.5
		C3.04,0.58,3.01,0.67,3,0.76z"/>
	<path d="M3.71,1.71c0.01,0.05,0.05,0.08,0.1,0.08c0.05-0.01,0.08-0.05,0.08-0.1c0,0,0,0,0,0c0-0.05-0.04-0.09-0.09-0.09
		c0,0,0,0,0,0C3.77,1.62,3.74,1.64,3.71,1.67c0,0,0,0,0,0c0,0.01,0,0.01,0,0.02C3.71,1.7,3.71,1.7,3.71,1.71z"/>
	<path d="M2.84,1.66c-0.02-0.01-0.05-0.01-0.07,0C2.74,1.67,2.73,1.69,2.72,1.71c0,0.01-0.01,0.02-0.01,0.03
		c-0.01,0.05,0.03,0.09,0.08,0.1c0.05,0.01,0.09-0.03,0.1-0.08c0-0.02,0-0.04-0.01-0.06C2.86,1.68,2.85,1.67,2.84,1.66z"/>
	<path d="M3.49,2.32C3.48,2.34,3.52,2.3,3.52,2.27c0.01-0.03-0.01-0.06-0.04-0.06c-0.03,0-0.09,0.02-0.06,0.02c0,0,0,0,0,0
		C3.46,2.24,3.49,2.27,3.49,2.32z"/>
	<path d="M3.06,2.32C3.06,2.28,3.08,2.24,3.12,2.23c0,0,0.01,0,0.01,0c0.03,0-0.03-0.03-0.06-0.02c-0.03,0-0.05,0.03-0.04,0.06
		c0,0,0,0,0,0C3.03,2.3,3.07,2.34,3.06,2.32z"/>
	<path fill="#231F20" d="M2.73,1.35c0,0.01,0.07,0.07,0.15,0.16c0.04,0.06,0.1,0.11,0.17,0.14c0.03,0-0.01-0.07-0.15-0.16
		C2.8,1.42,2.73,1.35,2.73,1.35z"/>
	<path d="M2.69,2.01C2.65,1.99,2.61,1.97,2.58,1.95C2.57,1.94,2.56,1.93,2.55,1.92c0,0,0-0.01,0-0.01c0-0.02,0.01-0.03,0.01-0.05
		c0-0.01,0-0.02,0-0.02V1.82l-0.01,0v0.01c0,0,0,0.01,0,0.01v0.02c0,0.02-0.01,0.03-0.01,0.05c0,0,0,0,0,0
		C2.53,1.89,2.51,1.88,2.49,1.86L2.49,1.86C2.5,1.88,2.52,1.9,2.54,1.92C2.54,1.95,2.53,1.97,2.52,2h0.01
		c0.01-0.02,0.02-0.05,0.03-0.07c0.01,0.01,0.02,0.02,0.03,0.03C2.61,1.98,2.65,2,2.69,2.01c0.04,0.02,0.08,0.03,0.12,0.03
		c0.04,0,0.08,0,0.12-0.01V2.02C2.89,2.03,2.85,2.04,2.81,2.03C2.77,2.03,2.73,2.02,2.69,2.01z"/>
	<polygon points="3.6,1.93 3.6,1.93 3.61,1.93 3.61,1.93 	"/>
	<path d="M3.63,1.94L3.62,1.93h0l0,0l0.03,0.01l0.03,0.01c-0.01,0-0.01,0-0.02-0.01L3.63,1.94z"/>
	<polygon points="3.61,1.93 3.61,1.93 3.61,1.93 	"/>
	<path d="M3.94,1.89c0.07-0.02,0.14-0.05,0.19-0.1l0,0l0.01-0.01V1.78L4.13,1.79C4.08,1.84,4.01,1.87,3.94,1.89L3.94,1.89z"/>
	<path d="M4.09,1.85C4.06,1.87,4.03,1.9,4,1.92C3.95,1.96,3.87,1.98,3.8,1.98c-0.04,0-0.07-0.01-0.11-0.02L3.67,1.96
		c0.01,0,0.02,0.01,0.03,0.01c0.03,0.01,0.07,0.02,0.1,0.02c0.07,0,0.14-0.02,0.2-0.06C4.04,1.9,4.07,1.88,4.09,1.85
		C4.1,1.84,4.11,1.83,4.13,1.81l0.02-0.02V1.78L4.13,1.79L4.12,1.81C4.11,1.82,4.1,1.83,4.09,1.85z"/>
	<polygon fill="#231F20" points="2.19,2.23 2.19,2.23 2.19,2.23 	"/>
	<path fill="#231F20" d="M4.62,2.11c0,0,0.01,0.01,0.01,0.01c0.04-0.04,0.07-0.06,0.06-0.07c0,0,0,0,0,0
		C4.66,2.06,4.64,2.08,4.61,2.09C4.61,2.09,4.62,2.1,4.62,2.11z"/>
	<polygon fill="#231F20" points="4.4,2.18 4.4,2.18 4.4,2.18 	"/>
	<path fill="#231F20" d="M4.6,2.09C4.57,2.1,4.53,2.11,4.5,2.13c0,0,0,0,0,0.01l0.02-0.01c0,0.02-0.01,0.03-0.01,0.05
		C4.49,2.2,4.48,2.21,4.47,2.23c0,0-0.01,0-0.01,0c0,0,0,0,0,0.01c-0.01,0-0.02-0.01-0.03-0.01C4.42,2.21,4.41,2.2,4.41,2.19
		c0,0.02-0.01,0.04-0.02,0.06C4.38,2.27,4.38,2.28,4.37,2.29c0,0-0.01,0-0.01,0c0,0,0,0,0,0c0,0,0,0,0,0.01c0,0-0.01,0-0.01-0.01
		c-0.01,0-0.02-0.01-0.03-0.01C4.3,2.27,4.29,2.26,4.28,2.25c0,0.02,0,0.05,0,0.07c0,0.03-0.01,0.06-0.02,0.1l0-0.01
		c0,0,0,0.01,0,0.01L4.21,2.37C4.19,2.34,4.17,2.32,4.16,2.29c0,0,0,0,0-0.01H4.14c0,0.05-0.01,0.1-0.02,0.15
		C4.12,2.47,4.11,2.5,4.09,2.53c0,0,0,0,0,0c0,0,0,0.01,0,0.01C4.08,2.51,4.06,2.48,4.05,2.45C4.02,2.42,4,2.38,3.97,2.35H3.96
		C3.95,2.46,3.93,2.57,3.9,2.67c0,0,0,0,0,0c0,0,0,0.01,0,0.01c-0.03-0.1-0.08-0.19-0.14-0.26H3.74c0,0.09,0,0.17-0.02,0.25
		C3.71,2.72,3.7,2.77,3.68,2.82C3.66,2.77,3.63,2.71,3.61,2.66c-0.04-0.07-0.08-0.14-0.13-0.2c0,0,0,0,0.01,0c0,0,0-0.01-0.01-0.01
		H3.46c0,0.01,0,0.01,0,0.02c0,0,0,0,0,0c0,0.07,0,0.14-0.01,0.21C3.45,2.74,3.43,2.8,3.42,2.86C3.4,2.8,3.38,2.74,3.36,2.68
		c-0.02-0.06-0.04-0.14-0.06-0.2c0,0,0,0,0,0c0,0,0-0.01,0-0.02H3.29c0,0,0,0.01,0,0.01c0,0,0,0,0.01,0
		C3.28,2.54,3.26,2.61,3.24,2.69C3.22,2.76,3.19,2.83,3.17,2.89c0,0,0-0.01,0-0.01v0c-0.01-0.06-0.02-0.13-0.03-0.2
		C3.13,2.6,3.12,2.53,3.12,2.46H3.11c0,0,0,0.01,0,0.01l0.01,0C3.09,2.54,3.07,2.62,3.04,2.7C3.01,2.76,2.98,2.82,2.96,2.88
		c0,0,0-0.01,0-0.01c0,0,0,0,0,0C2.95,2.81,2.95,2.74,2.95,2.68c0-0.08,0.01-0.16,0.02-0.24H2.95c0,0,0,0.01,0,0.01l0.01,0
		C2.93,2.51,2.9,2.57,2.86,2.63c-0.03,0.06-0.07,0.12-0.1,0.18c0,0,0-0.01,0-0.01c0,0,0,0,0,0c0-0.06,0-0.1,0.01-0.18
		c0.01-0.07,0.01-0.14,0.02-0.2c0,0,0,0,0,0h0H2.77c0,0,0,0.01-0.01,0.01c0,0,0,0,0.01,0C2.72,2.49,2.68,2.55,2.64,2.62
		C2.61,2.68,2.59,2.74,2.57,2.81c0,0,0-0.01,0-0.01c0,0,0,0,0,0c0-0.06,0-0.12,0.01-0.2C2.58,2.53,2.59,2.46,2.6,2.39c0,0,0,0,0,0
		c0,0,0,0,0,0c0,0,0,0.01,0,0.01l0,0C2.58,2.45,2.56,2.51,2.53,2.57C2.5,2.63,2.47,2.69,2.44,2.74c0-0.06-0.01-0.12-0.01-0.19
		c0-0.07,0-0.14,0.01-0.2c0,0,0,0,0,0c0,0,0-0.01,0-0.01H2.44C2.41,2.37,2.39,2.41,2.36,2.45c0,0,0,0,0,0c0,0,0,0,0,0
		C2.32,2.49,2.3,2.52,2.27,2.55c0-0.05,0.01-0.09,0.02-0.14c0.01-0.04,0.02-0.09,0.04-0.13c0,0,0,0,0,0c0,0,0,0,0,0H2.32
		C2.31,2.29,2.3,2.3,2.29,2.31C2.28,2.32,2.26,2.33,2.25,2.34C2.22,2.37,2.19,2.39,2.17,2.42c0,0,0,0,0,0c0,0,0,0,0,0
		c0-0.06,0.01-0.12,0.02-0.18C2.18,2.26,2.17,2.28,2.16,2.29c0,0.01-0.01,0.01-0.01,0.02C2.14,2.32,2.12,2.34,2.11,2.35c0,0,0,0,0,0
		c0,0,0,0,0,0.01C2.1,2.33,2.09,2.3,2.09,2.27c0-0.02,0-0.05,0.01-0.07l0,0c0,0,0,0,0,0C2,2.15,1.91,2.12,1.9,2.14
		C1.89,2.16,1.96,2.22,2.05,2.31c0.04,0.04,0.09,0.08,0.14,0.16c0.06,0.07,0.05,0.08,0.12,0.16C2.38,2.72,2.46,2.8,2.54,2.88
		c0,0,0,0,0,0c0.17,0.14,0.37,0.22,0.58,0.24c0.44,0.04,0.79-0.28,0.9-0.38c0.14-0.13,0.28-0.28,0.4-0.42
		C4.47,2.29,4.5,2.24,4.57,2.18c0.03-0.03,0.05-0.04,0.07-0.06c0,0-0.01,0-0.01-0.01C4.61,2.1,4.61,2.1,4.6,2.09z"/>
	<polygon fill="#231F20" points="3.74,2.41 3.74,2.41 3.74,2.41 	"/>
	<path fill="#FEEAAE" d="M2.15,2.29c0.01-0.02,0.02-0.04,0.03-0.06L2.11,2.2l0,0C2.1,2.22,2.09,2.24,2.09,2.27
		c0,0.03,0,0.06,0.01,0.09c0,0,0,0,0-0.01c0.01-0.01,0.02-0.03,0.03-0.04C2.15,2.3,2.15,2.3,2.15,2.29z"/>
	<path fill="#FEEAAE" d="M2.29,2.31C2.3,2.3,2.31,2.29,2.32,2.29L2.25,2.26L2.19,2.23l0,0l0,0c0,0,0,0,0,0.01
		C2.17,2.3,2.17,2.36,2.17,2.42c0,0,0,0,0,0c0.02-0.03,0.05-0.05,0.07-0.07C2.26,2.33,2.28,2.32,2.29,2.31z"/>
	<path fill="#FEEAAE" d="M2.36,2.31C2.35,2.3,2.34,2.3,2.33,2.29c0,0,0,0,0,0C2.31,2.33,2.29,2.37,2.29,2.42
		C2.28,2.46,2.27,2.51,2.27,2.55c0.03-0.03,0.06-0.06,0.09-0.1c0,0,0,0,0,0c0.03-0.04,0.06-0.07,0.08-0.11
		C2.42,2.33,2.39,2.32,2.36,2.31z"/>
	<path fill="#FEEAAE" d="M2.45,2.35C2.44,2.35,2.44,2.35,2.45,2.35c-0.01,0.06-0.01,0.14-0.01,0.2c0,0.07,0.01,0.13,0.01,0.19
		C2.47,2.69,2.5,2.63,2.53,2.57C2.56,2.51,2.58,2.45,2.6,2.4l0,0L2.56,2.39C2.52,2.38,2.48,2.37,2.45,2.35z"/>
	<path fill="#FEEAAE" d="M2.58,2.61C2.57,2.68,2.57,2.74,2.57,2.79c0,0,0,0.01,0,0.01c0.02-0.06,0.04-0.13,0.07-0.19
		c0.04-0.07,0.08-0.13,0.13-0.19c0,0,0,0-0.01,0C2.7,2.42,2.65,2.41,2.6,2.4C2.59,2.47,2.59,2.54,2.58,2.61z"/>
	<path fill="#FEEAAE" d="M2.79,2.43c-0.01,0.06-0.02,0.14-0.02,0.2c0,0.06,0,0.11,0,0.16c0,0,0,0.01,0,0.01
		c0.03-0.06,0.07-0.11,0.1-0.18C2.9,2.57,2.93,2.51,2.96,2.45l-0.01,0L2.91,2.44L2.79,2.43z"/>
	<path fill="#FEEAAE" d="M2.95,2.69c0,0.06,0,0.12,0.01,0.17c0,0,0,0.01,0,0.01C2.98,2.82,3.01,2.76,3.04,2.7
		c0.03-0.08,0.06-0.15,0.08-0.23l-0.01,0L2.96,2.45C2.95,2.53,2.95,2.61,2.95,2.69z"/>
	<path fill="#FEEAAE" d="M3.12,2.47c0,0.07,0.01,0.15,0.02,0.22c0.01,0.06,0.02,0.13,0.03,0.19c0,0,0,0.01,0,0.01
		c0.02-0.07,0.05-0.13,0.07-0.21c0.02-0.07,0.04-0.14,0.05-0.21c0,0,0,0-0.01,0c-0.03,0-0.06,0-0.09,0L3.12,2.47z"/>
	<path fill="#FEEAAE" d="M3.31,2.47c0.02,0.06,0.04,0.14,0.06,0.2C3.38,2.74,3.4,2.8,3.42,2.86C3.43,2.8,3.45,2.74,3.45,2.67
		C3.46,2.6,3.46,2.53,3.46,2.46c0,0,0,0,0,0C3.41,2.47,3.36,2.47,3.31,2.47C3.31,2.47,3.31,2.47,3.31,2.47z"/>
	<path fill="#FEEAAE" d="M3.49,2.46C3.48,2.46,3.48,2.46,3.49,2.46c0.04,0.07,0.08,0.13,0.12,0.2c0.03,0.05,0.05,0.11,0.08,0.16
		c0.02-0.05,0.03-0.1,0.04-0.16c0.02-0.08,0.02-0.17,0.02-0.25c0,0,0,0,0,0C3.64,2.43,3.56,2.45,3.49,2.46z"/>
	<path fill="#FEEAAE" d="M3.76,2.41C3.82,2.48,3.87,2.57,3.9,2.66c0,0,0,0,0,0c0.03-0.1,0.05-0.21,0.06-0.31c0,0,0,0,0,0
		C3.89,2.37,3.82,2.39,3.76,2.41z"/>
	<path fill="#FEEAAE" d="M4.05,2.32L3.97,2.35C4,2.38,4.03,2.41,4.05,2.45C4.07,2.48,4.08,2.5,4.09,2.52c0,0,0,0,0,0
		C4.11,2.5,4.12,2.47,4.13,2.44c0.01-0.05,0.02-0.1,0.02-0.15c-0.01,0-0.01,0-0.02,0.01C4.1,2.3,4.08,2.31,4.05,2.32z"/>
	<path fill="#FEEAAE" d="M4.16,2.28c0,0,0.01,0.01,0.01,0.01C4.18,2.32,4.2,2.34,4.22,2.36l0.04,0.04l0,0.01
		c0.01-0.03,0.02-0.06,0.02-0.1c0-0.02,0-0.05,0-0.07c0,0,0-0.01,0-0.01C4.24,2.25,4.2,2.27,4.16,2.28z"/>
	<path fill="#FEEAAE" d="M4.4,2.18C4.4,2.18,4.4,2.18,4.4,2.18C4.36,2.2,4.32,2.22,4.28,2.24C4.3,2.25,4.31,2.26,4.33,2.27
		c0.01,0.01,0.02,0.01,0.03,0.02c0,0,0.01,0,0.01,0c0.01-0.01,0.02-0.03,0.02-0.04C4.4,2.24,4.4,2.21,4.4,2.18c0.01,0,0.01,0,0.01,0
		C4.41,2.18,4.4,2.18,4.4,2.18z"/>
	<path fill="#FEEAAE" d="M4.45,2.22c0.01,0,0.01,0,0.02,0.01c0,0,0.01,0,0.01,0C4.48,2.21,4.49,2.2,4.5,2.18
		c0.01-0.02,0.01-0.03,0.01-0.05L4.5,2.14L4.41,2.18C4.42,2.2,4.43,2.21,4.45,2.22z"/>
	<path d="M4.73,2.19L4.73,2.19C4.71,2.17,4.7,2.16,4.68,2.15C4.7,2.16,4.71,2.18,4.73,2.19z"/>
	<path d="M4.67,2.15C4.68,2.15,4.68,2.15,4.67,2.15C4.68,2.15,4.67,2.14,4.67,2.15C4.67,2.14,4.67,2.15,4.67,2.15z"/>
	<polygon points="4.55,2.01 4.55,2.01 4.56,2 	"/>
	<path d="M4.62,2.11C4.62,2.1,4.61,2.09,4.61,2.09c0,0,0,0,0,0C4.59,2.07,4.59,2.07,4.58,2.06L4.56,2.03L4.55,2.01v0L4.54,2.02h0.01
		v0.01l0.01,0l0.02,0.03C4.58,2.07,4.59,2.08,4.6,2.09c0,0,0,0,0,0C4.61,2.1,4.61,2.1,4.62,2.11c0,0.01,0.01,0.01,0.01,0.01
		c0.01,0.01,0.02,0.02,0.03,0.02C4.66,2.13,4.65,2.13,4.64,2.12C4.63,2.11,4.63,2.11,4.62,2.11z"/>
	<path fill="#364A9F" d="M2.34,3.74C2.28,3.72,2.26,3.72,2.19,3.69C2.15,3.67,2.11,3.65,2.07,3.62C2.06,3.61,2.05,3.6,2.03,3.6
		C1.78,3.46,1.46,3.55,1.32,3.8c0,0.01-0.01,0.01-0.01,0.02C1.28,3.88,1.27,3.94,1.25,4h0.67C1.91,3.97,1.91,3.94,1.89,3.91
		c0,0,0,0,0,0.01c0,0,0-0.01,0-0.01C1.92,3.94,1.94,3.97,1.96,4H2.2C2.15,3.92,2.1,3.85,2.03,3.78l0.01,0c0,0,0-0.01-0.01-0.01
		L2.41,4H2.6C2.58,3.96,2.55,3.91,2.53,3.87C2.47,3.82,2.41,3.77,2.34,3.74z"/>
	<path fill="#221D5E" d="M1.89,3.91C1.91,3.94,1.91,3.97,1.92,4h0.03C1.93,3.97,1.92,3.94,1.89,3.91C1.89,3.92,1.89,3.91,1.89,3.91z
		"/>
	<path fill="#221D5E" d="M2.04,3.79C2.1,3.85,2.16,3.92,2.2,4h0.21L2.04,3.79C2.04,3.78,2.04,3.78,2.04,3.79z"/>
	<path fill="#364A9F" d="M4.23,3.76C4.08,3.68,3.9,3.66,3.74,3.73C3.66,3.79,3.55,3.89,3.42,4h0.26C3.68,3.99,3.7,3.99,3.71,3.97
		c0,0,0,0.01-0.01,0.01c0,0,0,0,0,0C3.7,3.99,3.7,3.99,3.69,4h0.73C4.38,3.91,4.32,3.82,4.23,3.76z"/>
	<path fill="#221D5E" d="M3.71,3.97C3.7,3.99,3.68,3.99,3.67,4h0.02C3.69,3.99,3.7,3.99,3.71,3.97C3.7,3.98,3.7,3.98,3.71,3.97z"/>
</g>
</svg>
