<?xml version="1.0" encoding="utf-8"?>
<!-- Generator: Adobe Illustrator 24.0.0, SVG Export Plug-In . SVG Version: 6.00 Build 0)  -->
<svg version="1.2" baseProfile="tiny" id="Layer_1" xmlns="http://www.w3.org/2000/svg" xmlns:xlink="http://www.w3.org/1999/xlink"
	 x="0px" y="0px" viewBox="0 0 5.35 4" xml:space="preserve">
<g>
	<path fill="#221D5E" d="M0.31,3.19C0.13,3.42-0.05,3.73,0.01,3.8c0.03,0.03,0.11,0.01,0.16-0.01C0.21,3.77,0.25,3.74,0.29,3.7
		C0.34,3.65,0.4,3.6,0.47,3.56c0.1-0.06,0.18-0.03,0.26-0.03c0-0.02,0.01-0.05,0.02-0.07L0.72,3.47C0.71,3.48,0.7,3.48,0.69,3.49
		C0.7,3.47,0.71,3.45,0.72,3.42c0.01-0.03,0.03-0.05,0.04-0.08C0.76,3.34,0.75,3.33,0.74,3.33c-0.02,0-0.03,0-0.05,0
		c0.02-0.04,0.04-0.07,0.06-0.11c0.03-0.05,0.06-0.1,0.09-0.14c-0.01,0-0.02,0-0.03,0.01c-0.01,0-0.03,0.01-0.04,0.02
		C0.78,3.06,0.8,3,0.81,2.96s0.04-0.08,0.05-0.11C0.86,2.84,0.85,2.84,0.84,2.84c-0.03,0-0.05,0.03-0.06,0.06
		C0.79,2.78,0.83,2.68,0.91,2.6c0.03-0.03,0.07-0.04,0.11-0.06C0.83,2.52,0.38,3.11,0.31,3.19z"/>
	<path fill="#221D5E" d="M4.63,2.76C4.62,2.75,4.6,2.74,4.59,2.74c-0.01,0-0.02,0.01-0.03,0.02C4.57,2.77,4.58,2.78,4.59,2.8
		c0,0.01,0.01,0.02,0.01,0.04C4.58,2.83,4.57,2.82,4.56,2.81c-0.01,0-0.02-0.01-0.04-0.01c0.02,0.02,0.03,0.05,0.05,0.07
		C4.58,2.9,4.59,2.93,4.6,2.95C4.59,2.94,4.58,2.93,4.57,2.93c-0.01,0-0.02,0-0.03,0c0.02,0.02,0.03,0.03,0.05,0.06
		C4.59,3,4.6,3.02,4.6,3.03C4.6,3.02,4.58,3.02,4.57,3.01c-0.01,0-0.02,0-0.02,0.01C4.56,3.05,4.58,3.07,4.6,3.1
		c0.01,0.02,0.03,0.04,0.04,0.06C4.63,3.15,4.61,3.15,4.59,3.14c-0.01,0-0.03,0-0.04,0C4.58,3.18,4.6,3.21,4.61,3.25
		c0,0.01,0,0.01,0.01,0.02c0,0,0,0,0.01,0.01c0.1,0.05,0.16,0.01,0.28,0.09C5,3.43,5.1,3.5,5.18,3.58C5.2,3.6,5.23,3.61,5.25,3.61
		c0.04,0.01,0.09,0,0.1-0.02c0-0.01,0-0.01,0-0.02C5.34,3.53,5.34,3.53,5.32,3.5C5.3,3.43,5.28,3.36,5.28,3.28
		c-0.04-0.15-0.11-0.3-0.21-0.42C4.92,2.66,4.61,2.41,4.48,2.49c0,0,0,0.01-0.01,0.01C4.49,2.52,4.5,2.54,4.52,2.56
		C4.56,2.62,4.6,2.69,4.63,2.76z"/>
	<path fill="#6D3B17" d="M2.36,2.8C2.36,2.8,2.36,2.79,2.36,2.8c0-0.06,0-0.11,0.01-0.17c0.01-0.06,0.01-0.14,0.02-0.2l0.12,0.01
		l0.04,0.01c0,0,0-0.01,0-0.01h0.01C2.55,2.52,2.55,2.6,2.55,2.68c0,0.06,0,0.12,0.01,0.19c0,0,0,0,0,0
		C2.55,2.81,2.55,2.75,2.55,2.69c0-0.08,0.01-0.16,0.02-0.24l0.15,0.01c0,0,0-0.01,0-0.01h0.01c0,0.07,0.01,0.15,0.02,0.22
		c0.01,0.08,0.02,0.14,0.03,0.2v0C2.76,2.82,2.75,2.76,2.74,2.69C2.74,2.62,2.73,2.54,2.72,2.47L2.8,2.47c0.03,0,0.06,0,0.09,0
		c0,0,0-0.01,0-0.01h0.01c0,0,0,0.01,0,0.02c0.05,0,0.1-0.01,0.15-0.01c0-0.01,0-0.01,0-0.02h0.02c0,0,0,0.01,0.01,0.01
		c0.07-0.01,0.16-0.02,0.25-0.05c0,0,0,0,0,0h0h0.01C3.42,2.49,3.47,2.57,3.5,2.67c0,0,0-0.01,0-0.01C3.47,2.57,3.42,2.48,3.36,2.41
		c0.06-0.02,0.13-0.03,0.2-0.06c0,0,0,0,0,0h0.01c0.03,0.03,0.06,0.07,0.08,0.1c0.02,0.03,0.03,0.05,0.04,0.08c0,0,0-0.01,0-0.01
		C3.68,2.5,3.67,2.48,3.65,2.45C3.63,2.41,3.6,2.38,3.57,2.35l0.07-0.02C3.68,2.31,3.7,2.3,3.73,2.29l-0.02,0
		C3.68,2.3,3.66,2.31,3.64,2.32L3.57,2.34H3.56c-0.07,0.02-0.14,0.04-0.2,0.06H3.34c-0.1,0.02-0.19,0.04-0.26,0.05H3.06
		C3.01,2.45,2.96,2.46,2.9,2.46H2.89c-0.03,0-0.06,0-0.1,0L2.72,2.45H2.71L2.56,2.44H2.55L2.5,2.43L2.39,2.42
		c-0.01,0.06-0.02,0.13-0.02,0.2C2.36,2.69,2.36,2.74,2.36,2.8z"/>
	<polygon fill="#6D3B17" points="2.88,2.3 2.88,2.3 2.87,2.31 2.87,2.31 	"/>
	<path fill="#6D3B17" d="M3.77,2.29l-0.01,0c0.02,0.02,0.03,0.05,0.05,0.07l0.04,0.05c0,0,0-0.01,0-0.01L3.82,2.36
		C3.8,2.34,3.78,2.32,3.77,2.29z"/>
	<path fill="#6D3B17" d="M1.5,3.92C1.52,3.94,1.54,3.97,1.56,4h0C1.54,3.97,1.52,3.94,1.5,3.92C1.5,3.91,1.5,3.92,1.5,3.92z"/>
	<path fill="#6D3B17" d="M1.85,2.34C1.82,2.37,1.79,2.39,1.77,2.41c0,0,0,0,0,0C1.8,2.39,1.82,2.37,1.85,2.34
		c0.02-0.01,0.03-0.02,0.05-0.04l0,0C1.88,2.32,1.86,2.33,1.85,2.34z"/>
	<polygon fill="#6D3B17" points="3.96,2.3 3.96,2.29 3.95,2.29 	"/>
	<path fill="#6D3B17" d="M2.04,2.34C2.01,2.38,1.99,2.41,1.96,2.45c0,0,0,0,0,0C1.99,2.41,2.02,2.37,2.04,2.34l0.01-0.01
		c0,0,0,0.01,0,0.01c0.04,0.02,0.08,0.03,0.11,0.04L2.2,2.4c0,0,0-0.01,0-0.01c0,0,0,0,0,0L2.16,2.38C2.12,2.37,2.08,2.35,2.04,2.34
		L2.04,2.34C2.02,2.33,2,2.32,1.97,2.31l-0.01,0C1.99,2.32,2.02,2.33,2.04,2.34z"/>
	<path fill="#6D3B17" d="M1.79,2.46c-0.06-0.07-0.1-0.11-0.14-0.16h0C1.69,2.35,1.73,2.39,1.79,2.46C1.84,2.53,1.84,2.54,1.9,2.62
		C1.98,2.71,2.06,2.8,2.14,2.88c0,0,0,0,0,0C2.06,2.8,1.98,2.72,1.91,2.63C1.84,2.55,1.85,2.54,1.79,2.46z"/>
	<path fill="#6D3B17" d="M1.64,3.78C1.7,3.85,1.75,3.92,1.8,4h0C1.76,3.92,1.7,3.85,1.64,3.78L1.64,3.78z"/>
	<path fill="#6D3B17" d="M1.71,2.35C1.71,2.35,1.71,2.35,1.71,2.35c0.01-0.01,0.03-0.03,0.04-0.04h0C1.73,2.32,1.72,2.34,1.71,2.35z
		"/>
	<path fill="#6D3B17" d="M2.17,2.8C2.17,2.8,2.17,2.8,2.17,2.8c0-0.06,0-0.12,0.01-0.18C2.19,2.54,2.19,2.47,2.2,2.4
		c0.04,0.01,0.1,0.02,0.16,0.03c0,0,0-0.01,0.01-0.01h0C2.3,2.41,2.25,2.4,2.2,2.39C2.19,2.46,2.19,2.53,2.18,2.6
		C2.17,2.68,2.17,2.73,2.17,2.8z"/>
	<path fill="#6D3B17" d="M4.33,3.83c0.02,0.02,0.03,0.04,0.04,0.06C4.38,3.9,4.39,3.92,4.39,3.94c0-0.02,0-0.05,0-0.07
		c0-0.03-0.01-0.06-0.02-0.08C4.39,3.79,4.4,3.8,4.41,3.81c0.01,0.01,0.02,0.02,0.03,0.04c0-0.02,0-0.05,0-0.07
		c0-0.03-0.01-0.07-0.02-0.1c0.02,0.02,0.03,0.04,0.05,0.06C4.49,3.74,4.5,3.76,4.5,3.78c0-0.02,0-0.04,0-0.07
		C4.5,3.67,4.48,3.63,4.46,3.59C4.48,3.6,4.49,3.62,4.5,3.63c0.01,0.01,0.02,0.03,0.03,0.04c0-0.03,0-0.05,0-0.08
		c0-0.03-0.01-0.06-0.02-0.08c0.02,0,0.05,0.01,0.06,0.03c0-0.02,0-0.04,0-0.07c0-0.03-0.01-0.06-0.03-0.08
		C4.56,3.4,4.58,3.41,4.59,3.42C4.6,3.43,4.62,3.44,4.63,3.46C4.62,3.43,4.61,3.4,4.6,3.38C4.59,3.35,4.58,3.33,4.56,3.31
		c0.01,0,0.03,0,0.04,0.01c0.01,0,0.03,0.01,0.04,0.02C4.64,3.31,4.63,3.29,4.62,3.27c0-0.01,0-0.01-0.01-0.02
		C4.6,3.21,4.58,3.18,4.55,3.14c0.01,0,0.03,0,0.04,0c0.02,0,0.04,0.01,0.05,0.02C4.63,3.14,4.62,3.12,4.6,3.1
		C4.58,3.07,4.56,3.05,4.54,3.02c0.01,0,0.02-0.01,0.02-0.01c0.01,0,0.03,0.01,0.04,0.02C4.6,3.02,4.59,3,4.58,2.99
		C4.57,2.96,4.55,2.95,4.54,2.93c0.01,0,0.02,0,0.03,0c0.01,0,0.02,0.01,0.03,0.02C4.59,2.93,4.58,2.9,4.57,2.88
		C4.56,2.85,4.54,2.83,4.52,2.81c0.01,0,0.02,0,0.04,0.01C4.57,2.82,4.58,2.83,4.6,2.83c0-0.01-0.01-0.02-0.01-0.04
		C4.58,2.78,4.57,2.77,4.56,2.76c0.01-0.01,0.02-0.01,0.03-0.02c0.02,0,0.03,0,0.05,0.02C4.6,2.69,4.56,2.62,4.52,2.56
		C4.5,2.54,4.49,2.52,4.47,2.5C4.46,2.49,4.45,2.47,4.44,2.46c0.02,0,0.04-0.01,0.06-0.01c0.02,0,0.05,0,0.07,0.01
		C4.55,2.43,4.53,2.4,4.51,2.37C4.48,2.34,4.46,2.31,4.44,2.29l-0.03,0C4.39,2.3,4.36,2.32,4.34,2.33C4.18,2.49,4.06,2.64,3.97,2.74
		c-0.08,0.11-0.16,0.21-0.25,0.3C3.63,3.13,3.54,3.21,3.44,3.28c-0.2,0.13-0.43,0.19-0.66,0.19c-0.2,0.03-0.4,0-0.58-0.09
		C2,3.27,1.83,3.1,1.72,2.9C1.67,2.8,1.61,2.71,1.55,2.62C1.48,2.53,1.41,2.45,1.32,2.37c-0.04-0.01-0.06-0.04-0.1-0.06l-0.04,0
		C1.14,2.34,1.1,2.37,1.06,2.41C1.03,2.43,1,2.47,0.97,2.5c0.03-0.02,0.08-0.02,0.1,0.01C1.06,2.52,1.04,2.53,1.03,2.54
		C0.99,2.56,0.95,2.57,0.91,2.6C0.83,2.68,0.79,2.78,0.78,2.89c0.01-0.03,0.03-0.05,0.06-0.06c0.01,0,0.02,0,0.03,0.01
		C0.85,2.88,0.83,2.92,0.81,2.96S0.78,3.06,0.76,3.1c0.01-0.01,0.03-0.01,0.04-0.02c0.01,0,0.02,0,0.03-0.01
		C0.81,3.12,0.78,3.17,0.75,3.22C0.73,3.26,0.71,3.29,0.69,3.33c0.02,0,0.03,0,0.05,0c0.01,0,0.02,0.01,0.02,0.02
		C0.75,3.37,0.74,3.39,0.72,3.42C0.71,3.45,0.7,3.47,0.69,3.49C0.7,3.48,0.71,3.48,0.72,3.47l0.02-0.01
		C0.73,3.48,0.73,3.5,0.72,3.53c0,0,0,0,0,0c0,0.02-0.01,0.04-0.01,0.05c0.01-0.01,0.02-0.02,0.03-0.03
		c0.01-0.01,0.02-0.01,0.04-0.02c-0.01,0.03-0.02,0.07-0.03,0.1C0.74,3.68,0.74,3.7,0.73,3.72C0.74,3.71,0.76,3.7,0.78,3.69
		C0.78,3.68,0.8,3.68,0.81,3.68c0,0.03-0.01,0.06-0.01,0.1v0.06c0.01-0.01,0.03-0.02,0.05-0.03C0.86,3.81,0.88,3.8,0.9,3.8h0.02
		c0.15-0.25,0.46-0.34,0.72-0.2C1.65,3.6,1.66,3.61,1.67,3.62c0.04,0.03,0.07,0.05,0.11,0.07c0.07,0.03,0.09,0.03,0.15,0.05
		c0.07,0.03,0.14,0.07,0.19,0.13C2.16,3.91,2.18,3.96,2.2,4h0.81c0.13-0.11,0.25-0.21,0.33-0.27C3.5,3.66,3.69,3.68,3.84,3.76
		C3.92,3.82,3.98,3.91,4.02,4h0.25c0-0.03,0-0.07,0-0.11C4.29,3.91,4.3,3.93,4.3,3.95c0,0.02,0,0.04,0,0.05h0
		c0.01-0.02,0.02-0.04,0.02-0.07C4.33,3.9,4.34,3.87,4.33,3.83z"/>
	<path fill="#6D3B17" d="M3.3,3.98C3.3,3.99,3.29,3.99,3.29,4h0C3.3,3.99,3.3,3.99,3.3,3.98C3.31,3.98,3.3,3.98,3.3,3.98z"/>
	<path fill="#D4C1BB" d="M2.53,1.75C2.51,1.73,2.5,1.71,2.47,1.7C2.47,1.68,2.45,1.67,2.44,1.66C2.4,1.63,2.35,1.61,2.31,1.58
		C2.29,1.59,2.27,1.6,2.26,1.61C2.19,1.7,2.19,1.83,2.28,1.91c0.04,0.04,0.08,0.07,0.13,0.07c0.05,0.01,0.1,0,0.15-0.03
		c0.03-0.02,0.06-0.05,0.07-0.08C2.6,1.83,2.57,1.79,2.53,1.75z M2.39,1.83c-0.05-0.01-0.08-0.05-0.08-0.1c0-0.01,0-0.02,0.01-0.03
		c0.01-0.02,0.02-0.03,0.04-0.04c0.02-0.01,0.05-0.01,0.07,0C2.45,1.67,2.46,1.68,2.47,1.7c0.01,0.02,0.02,0.04,0.01,0.06
		C2.48,1.8,2.44,1.84,2.39,1.83z"/>
	<path fill="#D4C1BB" d="M3.4,1.6c0.05,0,0.09,0.04,0.09,0.09c0,0,0,0,0,0c0.01,0.05-0.03,0.09-0.08,0.1
		c-0.05,0.01-0.09-0.03-0.1-0.08c0-0.01,0-0.01,0-0.02c0-0.01,0-0.01,0-0.02C3.29,1.68,3.28,1.7,3.26,1.72L3.24,1.74
		C3.22,1.78,3.22,1.83,3.25,1.87C3.28,1.9,3.32,1.91,3.36,1.91c0.05,0,0.1-0.02,0.15-0.06c0.1-0.07,0.15-0.19,0.1-0.26h0
		C3.58,1.56,3.54,1.55,3.5,1.55C3.46,1.57,3.43,1.58,3.4,1.6C3.4,1.6,3.4,1.6,3.4,1.6z"/>
	<path fill="#D4C1BB" d="M4.32,1.71C4.24,1.69,4.16,1.7,4.09,1.74C4.02,1.79,4.03,1.83,3.95,1.91C3.89,1.96,3.83,2,3.76,2.02
		C3.68,2.06,3.6,2.09,3.51,2.11C3.33,2.15,3.14,2.17,2.95,2.17C2.94,2.21,2.93,2.24,2.92,2.26c0,0.01-0.01,0.01-0.01,0.01
		C2.9,2.29,2.89,2.3,2.88,2.3c0,0-0.01,0.01-0.01,0.01c0,0,0,0,0,0c0,0,0,0,0,0c-0.04,0-0.06-0.05-0.09-0.14
		C2.64,2.21,2.4,2.16,2.19,2.1C1.92,2.01,1.83,1.84,1.63,1.83c-0.03,0-0.05,0-0.08,0c-0.2,0.01-0.44,0.08-0.43,0.32
		c0,0.03-0.01,0.06,0,0.1c0.02,0.03,0.06,0.04,0.09,0.06c0.03,0.02,0.06,0.05,0.1,0.06c0.09,0.08,0.17,0.16,0.24,0.25
		C1.61,2.71,1.67,2.8,1.72,2.9C1.83,3.1,2,3.27,2.2,3.39c0.18,0.09,0.38,0.12,0.58,0.09c0.23,0,0.46-0.06,0.66-0.19
		c0.1-0.07,0.19-0.15,0.28-0.24c0.09-0.1,0.18-0.2,0.25-0.3c0.08-0.1,0.2-0.25,0.37-0.41C4.36,2.32,4.39,2.3,4.41,2.29
		c0.02-0.01,0.03-0.01,0.04-0.02c0,0,0.01,0,0.01-0.01C4.53,2.22,4.58,2.17,4.6,2.1c0.02-0.08,0.01-0.16-0.03-0.22
		C4.51,1.79,4.42,1.73,4.32,1.71z M3.08,2.21c0.03,0.01,0.04,0.03,0.04,0.06c0,0.03-0.04,0.07-0.03,0.04
		c0.01-0.04-0.02-0.08-0.06-0.08c0,0,0,0,0,0C2.99,2.23,3.05,2.21,3.08,2.21z M2.67,2.21c0.03,0,0.09,0.02,0.06,0.02
		c0,0-0.01,0-0.01,0C2.68,2.24,2.66,2.28,2.66,2.32C2.67,2.34,2.63,2.3,2.63,2.27c0,0,0,0,0,0C2.63,2.24,2.65,2.22,2.67,2.21z
		 M4.33,2.19C4.31,2.18,4.3,2.16,4.28,2.15c0,0,0,0-0.01,0c0,0-0.01,0-0.01-0.01C4.26,2.13,4.24,2.13,4.23,2.12
		C4.21,2.14,4.2,2.15,4.17,2.18C4.1,2.24,4.07,2.29,4.03,2.33c-0.13,0.15-0.26,0.29-0.4,0.42c-0.11,0.1-0.46,0.41-0.9,0.38
		C2.52,3.11,2.31,3.02,2.15,2.88c0,0,0,0,0,0c0,0,0,0,0,0C2.06,2.8,1.98,2.71,1.9,2.62C1.84,2.54,1.84,2.53,1.79,2.46
		c-0.05-0.07-0.1-0.11-0.14-0.15C1.56,2.22,1.49,2.16,1.5,2.14C1.51,2.11,1.6,2.15,1.7,2.19l0.09,0.04l0.06,0.02l0.07,0.03h0.01
		C1.95,2.29,1.96,2.3,1.97,2.31C2,2.32,2.02,2.33,2.04,2.34h0.01c0.04,0.02,0.08,0.03,0.12,0.05L2.2,2.39c0,0,0,0,0,0c0,0,0,0,0,0
		c0,0,0,0,0,0C2.25,2.4,2.3,2.41,2.37,2.42h0h0.01h0c0,0,0,0,0,0L2.5,2.43l0.05,0.01h0.01l0.15,0.02h0.01L2.8,2.46
		c0.03,0,0.06,0,0.1,0H2.9c0.05,0,0.1-0.01,0.16-0.01h0.02c0.07-0.01,0.16-0.03,0.26-0.05h0.02c0.06-0.02,0.13-0.03,0.2-0.06h0.01
		l0.07-0.02C3.66,2.31,3.68,2.3,3.7,2.29c0.01,0,0.03-0.01,0.04-0.01h0.01C3.8,2.26,3.84,2.25,3.88,2.23
		c0.05-0.02,0.09-0.04,0.13-0.06l0.1-0.05C4.14,2.11,4.17,2.1,4.2,2.09C4.19,2.08,4.18,2.07,4.18,2.06L4.16,2.03l-0.01,0V2.02H4.14
		l0.01-0.01v0L4.16,2L4.15,2.01v0l0.01,0.01l0.02,0.03C4.19,2.07,4.2,2.07,4.2,2.08C4.24,2.07,4.27,2.05,4.3,2.04
		c0,0-0.01,0.01,0,0.01c0,0,0,0,0,0c0.01,0-0.02,0.03-0.06,0.07c0.01,0.01,0.02,0.02,0.03,0.03c0,0,0.01,0.01,0.01,0.01
		C4.3,2.16,4.31,2.17,4.33,2.19L4.33,2.19z"/>
	<path fill="#364A9F" d="M2.61,1.1C2.61,1.1,2.6,1.1,2.61,1.1C2.42,1.15,2.25,1.22,2.09,1.32C1.94,1.42,1.8,1.54,1.68,1.68
		C1.63,1.69,1.56,1.7,1.48,1.72c-0.07,0.01-0.14,0.04-0.2,0.07C1.2,1.83,1.14,1.89,1.1,1.96C1.07,2.03,1.06,2.12,1.09,2.19
		C1.1,2.21,1.11,2.24,1.13,2.26c-0.01-0.04,0-0.07,0-0.1C1.12,1.92,1.35,1.84,1.55,1.84c0.03,0,0.06-0.01,0.08,0c0,0,0,0,0,0
		c0.2,0.01,0.28,0.18,0.56,0.26c0.2,0.06,0.44,0.11,0.59,0.07c0.03,0.08,0.05,0.14,0.09,0.14c0,0,0,0,0,0c0,0,0.01-0.01,0.01-0.01
		c0.01,0,0.02-0.01,0.03-0.03c0,0,0.01-0.01,0.01-0.01c0.01-0.02,0.02-0.05,0.04-0.09c0.19,0,0.38-0.02,0.56-0.06
		C3.6,2.09,3.68,2.06,3.76,2.02C3.83,2,3.89,1.96,3.95,1.91c0.08-0.08,0.07-0.12,0.14-0.16C4.16,1.7,4.24,1.69,4.32,1.71
		c0,0,0,0,0,0c0.1,0.02,0.19,0.08,0.25,0.16C4.62,1.94,4.63,2.02,4.6,2.1c0,0,0,0,0,0C4.58,2.17,4.53,2.23,4.47,2.26l0.02-0.01
		l0.05-0.03C4.6,2.2,4.64,2.16,4.67,2.11C4.7,2.06,4.7,2,4.69,1.94C4.68,1.87,4.65,1.8,4.6,1.75C4.54,1.7,4.46,1.67,4.38,1.67
		c-0.08-0.01-0.16-0.01-0.24,0c-0.06-0.05-0.12-0.1-0.19-0.16c-0.07-0.06-0.13-0.1-0.2-0.14c-0.13-0.1-0.27-0.18-0.43-0.24
		C3.16,1.08,3,1.05,2.84,1.05C2.76,1.06,2.68,1.08,2.61,1.1C2.61,1.1,2.61,1.1,2.61,1.1z M3.74,1.78L3.74,1.78L3.73,1.79L3.74,1.78
		l0,0.01L3.73,1.81C3.72,1.83,3.7,1.84,3.69,1.85C3.67,1.88,3.64,1.9,3.61,1.92c-0.06,0.04-0.13,0.06-0.2,0.06
		c-0.03,0-0.07-0.01-0.1-0.02c-0.01,0-0.02-0.01-0.03-0.01L3.24,1.95L3.22,1.94l0,0h0c0,0,0,0,0,0l-0.01,0H3.2l0.01,0c0,0,0,0,0,0
		l0,0h0l0.01,0.01l0.03,0.01c0.01,0,0.01,0,0.02,0.01L3.3,1.97C3.33,1.98,3.37,1.98,3.4,1.98c0.07,0,0.14-0.02,0.2-0.06
		C3.64,1.9,3.66,1.87,3.69,1.85C3.7,1.83,3.71,1.82,3.72,1.81l0.01-0.01l0,0c-0.05,0.05-0.12,0.09-0.19,0.1V1.89
		c0.07-0.02,0.14-0.05,0.19-0.1L3.74,1.78z M3.5,1.55C3.54,1.55,3.59,1.56,3.62,1.6c0.05,0.07,0.01,0.18-0.1,0.26l0,0
		C3.47,1.9,3.41,1.91,3.36,1.91c-0.05,0-0.09-0.01-0.11-0.04C3.22,1.83,3.22,1.78,3.24,1.74l0.02-0.02C3.28,1.7,3.29,1.68,3.31,1.67
		c0,0,0,0,0,0C3.34,1.64,3.37,1.62,3.4,1.6c0,0,0,0,0,0c0,0,0,0,0,0C3.43,1.58,3.46,1.57,3.5,1.55C3.5,1.55,3.5,1.55,3.5,1.55z
		 M3.28,1.43C3.34,1.39,3.4,1.35,3.47,1.31C3.5,1.32,3.41,1.4,3.32,1.47C3.23,1.54,3.18,1.64,3.15,1.61
		C3.12,1.61,3.15,1.52,3.28,1.43z M2.53,2.03C2.49,2.04,2.45,2.04,2.41,2.04c-0.04,0-0.08-0.01-0.12-0.03
		C2.25,2,2.21,1.98,2.18,1.95C2.17,1.95,2.16,1.94,2.15,1.93C2.14,1.95,2.14,1.98,2.12,2H2.12c0.01-0.03,0.02-0.05,0.02-0.08
		C2.12,1.9,2.1,1.88,2.09,1.86L2.1,1.86c0.01,0.02,0.03,0.03,0.05,0.05c0,0,0,0,0,0c0-0.02,0.01-0.03,0.01-0.05V1.84
		c0,0,0-0.01,0-0.01V1.82l0.01,0v0.02c0,0.01,0,0.02,0,0.02c0,0.02,0,0.03-0.01,0.05c0,0,0,0.01,0,0.01
		c0.01,0.01,0.02,0.02,0.03,0.03c0.03,0.02,0.07,0.05,0.11,0.06c0.04,0.01,0.08,0.02,0.12,0.03C2.45,2.04,2.49,2.03,2.53,2.03
		L2.53,2.03z M2.56,1.95c-0.05,0.03-0.1,0.04-0.15,0.03c-0.05-0.01-0.1-0.03-0.13-0.07C2.19,1.83,2.19,1.7,2.26,1.61
		C2.27,1.6,2.29,1.59,2.31,1.58c0,0,0,0,0,0C2.36,1.6,2.4,1.63,2.44,1.66C2.46,1.67,2.47,1.68,2.48,1.7
		C2.5,1.71,2.52,1.73,2.53,1.75c0.04,0.04,0.07,0.08,0.1,0.12C2.62,1.91,2.59,1.93,2.56,1.95L2.56,1.95z M2.64,1.65
		C2.57,1.63,2.52,1.58,2.48,1.52C2.4,1.42,2.33,1.36,2.33,1.35S2.4,1.42,2.5,1.49C2.63,1.58,2.68,1.65,2.64,1.65z"/>
	<path fill="#231F20" d="M3.47,1.31C3.4,1.35,3.34,1.39,3.28,1.43C3.15,1.52,3.12,1.61,3.15,1.61c0.03,0.03,0.08-0.07,0.17-0.14
		C3.41,1.4,3.5,1.32,3.47,1.31z"/>
	<path fill="#221D5E" d="M2.6,0.76C2.59,0.87,2.59,0.99,2.61,1.1c0,0,0,0,0,0c0.08-0.02,0.16-0.04,0.24-0.05c0,0,0,0,0,0
		c0.16,0,0.32,0.03,0.47,0.08c-0.11-0.15-0.21-0.32-0.27-0.5C2.97,0.43,2.92,0.21,2.91,0C2.81,0.16,2.73,0.32,2.67,0.5
		C2.64,0.58,2.61,0.67,2.6,0.76z"/>
	<path d="M3.31,1.71c0.01,0.05,0.05,0.08,0.1,0.08c0.05-0.01,0.08-0.05,0.08-0.1c0,0,0,0,0,0c0-0.05-0.04-0.09-0.09-0.09
		c0,0,0,0,0,0C3.37,1.62,3.34,1.64,3.31,1.67c0,0,0,0,0,0c0,0.01,0,0.01,0,0.02C3.31,1.7,3.31,1.7,3.31,1.71z"/>
	<path d="M2.44,1.66c-0.02-0.01-0.05-0.01-0.07,0C2.35,1.67,2.33,1.69,2.32,1.71c0,0.01-0.01,0.02-0.01,0.03
		c-0.01,0.05,0.03,0.09,0.08,0.1c0.05,0.01,0.09-0.03,0.1-0.08c0-0.02,0-0.04-0.01-0.06C2.46,1.68,2.45,1.67,2.44,1.66z"/>
	<path d="M3.09,2.32C3.08,2.34,3.12,2.3,3.12,2.27c0.01-0.03-0.01-0.06-0.04-0.06c-0.03,0-0.09,0.02-0.06,0.02c0,0,0,0,0,0
		C3.06,2.24,3.09,2.27,3.09,2.32z"/>
	<path d="M2.66,2.32C2.66,2.28,2.68,2.24,2.73,2.23c0,0,0.01,0,0.01,0c0.03,0-0.03-0.03-0.06-0.02c-0.03,0-0.05,0.03-0.04,0.06
		c0,0,0,0,0,0C2.63,2.3,2.67,2.34,2.66,2.32z"/>
	<path fill="#231F20" d="M2.33,1.35c0,0.01,0.07,0.07,0.15,0.16c0.04,0.06,0.1,0.11,0.17,0.14c0.03,0-0.01-0.07-0.15-0.16
		C2.4,1.42,2.33,1.35,2.33,1.35z"/>
	<path d="M2.29,2.01C2.25,1.99,2.21,1.97,2.18,1.95C2.17,1.94,2.16,1.93,2.15,1.92c0,0,0-0.01,0-0.01c0-0.02,0.01-0.03,0.01-0.05
		c0-0.01,0-0.02,0-0.02V1.82l-0.01,0v0.01c0,0,0,0.01,0,0.01v0.02c0,0.02-0.01,0.03-0.01,0.05c0,0,0,0,0,0
		C2.13,1.89,2.11,1.88,2.1,1.86L2.09,1.86C2.1,1.88,2.12,1.9,2.14,1.92C2.14,1.95,2.13,1.97,2.12,2h0.01
		c0.01-0.02,0.02-0.05,0.03-0.07c0.01,0.01,0.02,0.02,0.03,0.03C2.21,1.98,2.25,2,2.29,2.01c0.04,0.02,0.08,0.03,0.12,0.03
		c0.04,0,0.08,0,0.12-0.01V2.02C2.49,2.03,2.45,2.04,2.41,2.03C2.37,2.03,2.33,2.02,2.29,2.01z"/>
	<polygon points="3.2,1.93 3.21,1.93 3.21,1.93 3.21,1.93 	"/>
	<path d="M3.23,1.94L3.22,1.93h0l0,0l0.03,0.01l0.03,0.01c-0.01,0-0.01,0-0.02-0.01L3.23,1.94z"/>
	<polygon points="3.21,1.93 3.21,1.93 3.21,1.93 	"/>
	<path d="M3.54,1.89c0.07-0.02,0.14-0.05,0.19-0.1l0,0l0.01-0.01V1.78L3.73,1.79C3.68,1.84,3.61,1.87,3.54,1.89L3.54,1.89z"/>
	<path d="M3.69,1.85C3.66,1.87,3.64,1.9,3.61,1.92C3.55,1.96,3.48,1.98,3.4,1.98c-0.04,0-0.07-0.01-0.11-0.02L3.27,1.96
		c0.01,0,0.02,0.01,0.03,0.01c0.03,0.01,0.07,0.02,0.1,0.02c0.07,0,0.14-0.02,0.2-0.06C3.64,1.9,3.67,1.88,3.69,1.85
		C3.7,1.84,3.72,1.83,3.73,1.81l0.02-0.02V1.78L3.73,1.79L3.72,1.81C3.71,1.82,3.7,1.83,3.69,1.85z"/>
	<polygon fill="#231F20" points="1.79,2.23 1.79,2.23 1.79,2.23 	"/>
	<path fill="#231F20" d="M4.22,2.11c0,0,0.01,0.01,0.01,0.01c0.04-0.04,0.07-0.06,0.06-0.07c0,0,0,0,0,0
		C4.26,2.06,4.24,2.08,4.21,2.09C4.21,2.09,4.22,2.1,4.22,2.11z"/>
	<polygon fill="#231F20" points="4,2.18 4,2.18 4,2.18 	"/>
	<path fill="#231F20" d="M4.2,2.09C4.17,2.1,4.13,2.11,4.1,2.13c0,0,0,0,0,0.01l0.02-0.01c0,0.02-0.01,0.03-0.01,0.05
		C4.09,2.2,4.09,2.21,4.08,2.23c0,0-0.01,0-0.01,0c0,0,0,0,0,0.01c-0.01,0-0.02-0.01-0.03-0.01C4.02,2.21,4.02,2.2,4.01,2.19
		C4,2.21,4,2.24,3.99,2.26C3.98,2.27,3.98,2.28,3.97,2.29c0,0-0.01,0-0.01,0c0,0,0,0,0,0c0,0,0,0,0,0.01c0,0-0.01,0-0.01-0.01
		c-0.01,0-0.02-0.01-0.03-0.01C3.9,2.27,3.89,2.26,3.88,2.25c0,0.02,0,0.05,0,0.07c0,0.03-0.01,0.06-0.02,0.1l0-0.01
		c0,0,0,0.01,0,0.01L3.81,2.37C3.79,2.34,3.77,2.32,3.76,2.29c0,0,0,0,0-0.01H3.74c0,0.05-0.01,0.1-0.02,0.15
		C3.72,2.47,3.71,2.5,3.7,2.53c0,0,0,0,0,0c0,0,0,0.01,0,0.01C3.68,2.51,3.67,2.48,3.65,2.45C3.62,2.42,3.6,2.38,3.57,2.35H3.56
		C3.55,2.46,3.54,2.57,3.5,2.67c0,0,0,0,0,0c0,0,0,0.01,0,0.01c-0.03-0.1-0.08-0.19-0.14-0.26H3.34c0,0.09,0,0.17-0.02,0.25
		C3.32,2.72,3.3,2.77,3.29,2.82C3.26,2.77,3.24,2.71,3.21,2.66c-0.04-0.07-0.08-0.14-0.13-0.2c0,0,0,0,0.01,0c0,0,0-0.01-0.01-0.01
		H3.06c0,0.01,0,0.01,0,0.02c0,0,0,0,0,0c0,0.07,0,0.14-0.01,0.21C3.05,2.74,3.04,2.8,3.02,2.86C3,2.8,2.98,2.74,2.96,2.68
		c-0.02-0.06-0.04-0.14-0.06-0.2c0,0,0,0,0,0c0,0,0-0.01,0-0.02H2.89c0,0,0,0.01,0,0.01c0,0,0,0,0.01,0
		C2.88,2.54,2.86,2.61,2.84,2.69C2.82,2.76,2.8,2.83,2.77,2.89c0,0,0-0.01,0-0.01v0c-0.01-0.06-0.02-0.13-0.03-0.2
		C2.73,2.6,2.72,2.53,2.72,2.46H2.71c0,0,0,0.01,0,0.01l0.01,0C2.69,2.54,2.67,2.62,2.64,2.7C2.61,2.76,2.59,2.82,2.56,2.88
		c0,0,0-0.01,0-0.01c0,0,0,0,0,0C2.55,2.81,2.55,2.74,2.55,2.68c0-0.08,0.01-0.16,0.02-0.24H2.55c0,0,0,0.01,0,0.01l0.01,0
		C2.53,2.51,2.5,2.57,2.46,2.63c-0.03,0.06-0.07,0.12-0.1,0.18c0,0,0-0.01,0-0.01c0,0,0,0,0,0c0-0.06,0-0.1,0.01-0.18
		c0.01-0.07,0.01-0.14,0.02-0.2c0,0,0,0,0,0h0H2.37c0,0,0,0.01-0.01,0.01c0,0,0,0,0.01,0C2.32,2.49,2.28,2.55,2.24,2.62
		C2.21,2.68,2.19,2.74,2.17,2.81c0,0,0-0.01,0-0.01c0,0,0,0,0,0c0-0.06,0-0.12,0.01-0.2C2.19,2.53,2.19,2.46,2.2,2.39c0,0,0,0,0,0
		c0,0,0,0,0,0c0,0,0,0.01,0,0.01l0,0C2.18,2.45,2.16,2.51,2.13,2.57C2.1,2.63,2.07,2.69,2.04,2.74c0-0.06-0.01-0.12-0.01-0.19
		c0-0.07,0-0.14,0.01-0.2c0,0,0,0,0,0c0,0,0-0.01,0-0.01H2.04C2.02,2.37,1.99,2.41,1.96,2.45c0,0,0,0,0,0c0,0,0,0,0,0
		C1.93,2.49,1.9,2.52,1.87,2.55c0-0.05,0.01-0.09,0.02-0.14C1.9,2.37,1.91,2.33,1.92,2.29c0,0,0,0,0,0c0,0,0,0,0,0H1.92
		C1.91,2.29,1.9,2.3,1.89,2.31C1.88,2.32,1.87,2.33,1.85,2.34C1.82,2.37,1.8,2.39,1.77,2.42c0,0,0,0,0,0c0,0,0,0,0,0
		c0-0.06,0.01-0.12,0.02-0.18C1.78,2.26,1.77,2.28,1.76,2.29c0,0.01-0.01,0.01-0.01,0.02C1.74,2.32,1.72,2.34,1.71,2.35c0,0,0,0,0,0
		c0,0,0,0,0,0.01C1.7,2.33,1.69,2.3,1.69,2.27c0-0.02,0-0.05,0.01-0.07l0,0c0,0,0,0,0,0C1.6,2.15,1.51,2.12,1.5,2.14
		C1.49,2.16,1.56,2.22,1.65,2.31c0.04,0.04,0.09,0.08,0.14,0.16c0.06,0.07,0.05,0.08,0.12,0.16C1.98,2.72,2.06,2.8,2.14,2.88
		c0,0,0,0,0,0c0.17,0.14,0.37,0.22,0.58,0.24c0.44,0.04,0.79-0.28,0.9-0.38c0.14-0.13,0.28-0.28,0.4-0.42
		C4.07,2.29,4.1,2.24,4.17,2.18C4.2,2.15,4.21,2.14,4.23,2.12c0,0-0.01,0-0.01-0.01C4.22,2.1,4.21,2.1,4.2,2.09z"/>
	<polygon fill="#231F20" points="3.34,2.41 3.34,2.41 3.34,2.41 	"/>
	<path fill="#FEEAAE" d="M1.76,2.29c0.01-0.02,0.02-0.04,0.03-0.06L1.71,2.2l0,0C1.7,2.22,1.69,2.24,1.69,2.27
		c0,0.03,0,0.06,0.01,0.09c0,0,0,0,0-0.01c0.01-0.01,0.02-0.03,0.03-0.04C1.75,2.3,1.75,2.3,1.76,2.29z"/>
	<path fill="#FEEAAE" d="M1.89,2.31C1.9,2.3,1.91,2.29,1.92,2.29L1.85,2.26L1.79,2.23l0,0l0,0c0,0,0,0,0,0.01
		C1.78,2.3,1.77,2.36,1.77,2.42c0,0,0,0,0,0c0.02-0.03,0.05-0.05,0.07-0.07C1.86,2.33,1.88,2.32,1.89,2.31z"/>
	<path fill="#FEEAAE" d="M1.96,2.31C1.95,2.3,1.94,2.3,1.93,2.29c0,0,0,0,0,0C1.91,2.33,1.9,2.37,1.89,2.42
		C1.88,2.46,1.87,2.51,1.87,2.55c0.03-0.03,0.06-0.06,0.09-0.1c0,0,0,0,0,0c0.03-0.04,0.06-0.07,0.08-0.11
		C2.02,2.33,1.99,2.32,1.96,2.31z"/>
	<path fill="#FEEAAE" d="M2.05,2.35C2.05,2.35,2.04,2.35,2.05,2.35c-0.01,0.06-0.01,0.14-0.01,0.2c0,0.07,0.01,0.13,0.01,0.19
		C2.07,2.69,2.1,2.63,2.13,2.57C2.16,2.51,2.18,2.45,2.2,2.4l0,0L2.16,2.39C2.12,2.38,2.08,2.37,2.05,2.35z"/>
	<path fill="#FEEAAE" d="M2.18,2.61C2.17,2.68,2.17,2.74,2.17,2.79c0,0,0,0.01,0,0.01c0.02-0.06,0.04-0.13,0.07-0.19
		c0.04-0.07,0.08-0.13,0.13-0.19c0,0,0,0-0.01,0C2.3,2.42,2.25,2.41,2.2,2.4C2.19,2.47,2.19,2.54,2.18,2.61z"/>
	<path fill="#FEEAAE" d="M2.39,2.43c-0.01,0.06-0.02,0.14-0.02,0.2c0,0.06,0,0.11,0,0.16c0,0,0,0.01,0,0.01
		c0.03-0.06,0.07-0.11,0.1-0.18C2.5,2.57,2.53,2.51,2.56,2.45l-0.01,0L2.51,2.44L2.39,2.43z"/>
	<path fill="#FEEAAE" d="M2.55,2.69c0,0.06,0,0.12,0.01,0.17c0,0,0,0.01,0,0.01C2.59,2.82,2.61,2.76,2.64,2.7
		c0.03-0.08,0.06-0.15,0.08-0.23l-0.01,0L2.56,2.45C2.55,2.53,2.55,2.61,2.55,2.69z"/>
	<path fill="#FEEAAE" d="M2.72,2.47c0,0.07,0.01,0.15,0.02,0.22c0.01,0.06,0.02,0.13,0.03,0.19c0,0,0,0.01,0,0.01
		C2.8,2.83,2.82,2.76,2.84,2.69c0.02-0.07,0.04-0.14,0.05-0.21c0,0,0,0-0.01,0c-0.03,0-0.06,0-0.09,0L2.72,2.47z"/>
	<path fill="#FEEAAE" d="M2.91,2.47c0.02,0.06,0.04,0.14,0.06,0.2C2.98,2.74,3,2.8,3.02,2.86C3.04,2.8,3.05,2.74,3.05,2.67
		C3.06,2.6,3.06,2.53,3.06,2.46c0,0,0,0,0,0C3.01,2.47,2.96,2.47,2.91,2.47C2.91,2.47,2.91,2.47,2.91,2.47z"/>
	<path fill="#FEEAAE" d="M3.09,2.46C3.08,2.46,3.08,2.46,3.09,2.46c0.04,0.07,0.08,0.13,0.12,0.2c0.03,0.05,0.05,0.11,0.08,0.16
		c0.02-0.05,0.03-0.1,0.04-0.16c0.02-0.08,0.02-0.17,0.02-0.25c0,0,0,0,0,0C3.24,2.43,3.16,2.45,3.09,2.46z"/>
	<path fill="#FEEAAE" d="M3.36,2.41C3.42,2.48,3.47,2.57,3.5,2.66c0,0,0,0,0,0c0.03-0.1,0.05-0.21,0.06-0.31c0,0,0,0,0,0
		C3.49,2.37,3.42,2.39,3.36,2.41z"/>
	<path fill="#FEEAAE" d="M3.65,2.32L3.57,2.35c0.03,0.03,0.06,0.07,0.08,0.1C3.67,2.48,3.68,2.5,3.69,2.52c0,0,0,0,0,0
		C3.71,2.5,3.72,2.47,3.73,2.44c0.01-0.05,0.02-0.1,0.02-0.15c-0.01,0-0.01,0-0.02,0.01C3.7,2.3,3.68,2.31,3.65,2.32z"/>
	<path fill="#FEEAAE" d="M3.76,2.28c0,0,0.01,0.01,0.01,0.01C3.78,2.32,3.8,2.34,3.82,2.36l0.04,0.04l0,0.01
		c0.01-0.03,0.02-0.06,0.02-0.1c0-0.02,0-0.05,0-0.07c0,0,0-0.01,0-0.01C3.85,2.25,3.8,2.27,3.76,2.28z"/>
	<path fill="#FEEAAE" d="M4,2.18C4,2.18,4,2.18,4,2.18C3.96,2.2,3.93,2.22,3.88,2.24C3.9,2.25,3.91,2.26,3.93,2.27
		c0.01,0.01,0.02,0.01,0.03,0.02c0,0,0.01,0,0.01,0c0.01-0.01,0.02-0.03,0.02-0.04C4,2.24,4,2.21,4,2.18c0.01,0,0.01,0,0.01,0
		C4.01,2.18,4,2.18,4,2.18z"/>
	<path fill="#FEEAAE" d="M4.05,2.22c0.01,0,0.01,0,0.02,0.01c0,0,0.01,0,0.01,0C4.09,2.21,4.09,2.2,4.1,2.18
		c0.01-0.02,0.01-0.03,0.01-0.05L4.1,2.14L4.01,2.18C4.02,2.2,4.03,2.21,4.05,2.22z"/>
	<path d="M4.33,2.19L4.33,2.19C4.31,2.17,4.3,2.16,4.28,2.15C4.3,2.16,4.31,2.18,4.33,2.19z"/>
	<path d="M4.28,2.15C4.28,2.15,4.28,2.15,4.28,2.15C4.28,2.15,4.27,2.14,4.28,2.15C4.27,2.14,4.27,2.15,4.28,2.15z"/>
	<polygon points="4.15,2.01 4.15,2.01 4.16,2 	"/>
	<path d="M4.22,2.11C4.22,2.1,4.21,2.09,4.21,2.09c0,0,0,0,0,0C4.2,2.07,4.19,2.07,4.18,2.06L4.16,2.03L4.15,2.01v0L4.14,2.02h0.01
		v0.01l0.01,0l0.02,0.03C4.18,2.07,4.19,2.08,4.2,2.09c0,0,0,0,0,0C4.21,2.1,4.22,2.1,4.22,2.11c0,0.01,0.01,0.01,0.01,0.01
		c0.01,0.01,0.02,0.02,0.03,0.02C4.26,2.13,4.25,2.13,4.24,2.12C4.23,2.11,4.23,2.11,4.22,2.11z"/>
	<path fill="#364A9F" d="M1.94,3.74C1.88,3.72,1.86,3.72,1.79,3.69C1.75,3.67,1.71,3.65,1.67,3.62C1.66,3.61,1.65,3.6,1.63,3.6
		C1.38,3.46,1.06,3.55,0.92,3.8c0,0.01-0.01,0.01-0.01,0.02C0.88,3.88,0.87,3.94,0.86,4h0.67C1.51,3.97,1.51,3.94,1.49,3.91
		c0,0,0,0,0,0.01c0,0,0-0.01,0-0.01C1.52,3.94,1.54,3.97,1.56,4H1.8C1.75,3.92,1.7,3.85,1.64,3.78l0.01,0c0,0,0-0.01-0.01-0.01
		L2.01,4H2.2C2.18,3.96,2.16,3.91,2.13,3.87C2.07,3.82,2.01,3.77,1.94,3.74z"/>
	<path fill="#221D5E" d="M1.49,3.91C1.51,3.94,1.51,3.97,1.53,4h0.03C1.54,3.97,1.52,3.94,1.49,3.91C1.5,3.92,1.49,3.91,1.49,3.91z"
		/>
	<path fill="#221D5E" d="M1.64,3.79C1.7,3.85,1.76,3.92,1.8,4h0.21L1.64,3.79C1.64,3.78,1.64,3.78,1.64,3.79z"/>
	<path fill="#364A9F" d="M3.84,3.76C3.69,3.68,3.5,3.66,3.34,3.73C3.26,3.79,3.15,3.89,3.02,4h0.26C3.28,3.99,3.3,3.99,3.31,3.97
		c0,0,0,0.01-0.01,0.01c0,0,0,0,0,0C3.3,3.99,3.3,3.99,3.29,4h0.73C3.98,3.91,3.92,3.82,3.84,3.76z"/>
	<path fill="#221D5E" d="M3.31,3.97C3.3,3.99,3.28,3.99,3.27,4h0.02C3.29,3.99,3.3,3.99,3.31,3.97C3.3,3.98,3.31,3.98,3.31,3.97z"/>
</g>
</svg>
